<svg width="124" height="24" viewBox="0 0 124 24" fill="none" xmlns="http://www.w3.org/2000/svg">
<path d="M10.7001 0.50043C11.687 0.480003 12.6723 0.590978 13.6301 0.830432C14.4406 0.976438 15.215 1.27872 15.9101 1.72043C16.5598 2.12817 17.0692 2.72485 17.3701 3.43043C17.711 4.25401 17.8779 5.13924 17.8601 6.03043C17.8996 7.0467 17.5967 8.04681 17.0001 8.87043C16.4112 9.6773 15.6266 10.3209 14.7201 10.7404C15.9671 11.0563 17.0619 11.8039 17.8101 12.8504C18.5114 13.9119 18.8804 15.1583 18.8701 16.4304C18.8857 17.4445 18.663 18.4481 18.2201 19.3604C17.8009 20.1669 17.1853 20.8547 16.4301 21.3604C15.6342 21.8848 14.755 22.2703 13.8301 22.5004C12.8739 22.7565 11.8898 22.8942 10.9001 22.9104H0.0600586V0.50043H10.7001ZM10.0501 9.60043C10.8283 9.63703 11.5982 9.42706 12.2501 9.00043C12.5337 8.75496 12.7551 8.44565 12.8959 8.09796C13.0367 7.75027 13.093 7.37411 13.0601 7.00043C13.0748 6.55486 12.9929 6.11138 12.8201 5.70043C12.6449 5.37604 12.3945 5.09831 12.0901 4.89043C11.7527 4.67448 11.3855 4.50938 11.0001 4.40043C10.5704 4.33077 10.135 4.30397 9.70006 4.32043H5.00006V9.60043H10.0501ZM10.2901 19.1904C10.7585 19.1728 11.2241 19.1091 11.6801 19.0004C12.0914 18.9228 12.4807 18.7555 12.8201 18.5104C13.1493 18.2737 13.4253 17.9705 13.6301 17.6204C13.8438 17.1719 13.9694 16.6864 14.0001 16.1904C14.033 15.7223 13.9602 15.2527 13.7871 14.8165C13.614 14.3803 13.345 13.9886 13.0001 13.6704C12.2346 13.1535 11.3227 12.8975 10.4001 12.9404H5.00006V19.2004L10.2901 19.1904ZM26.0001 19.1104C26.3975 19.4634 26.8613 19.7337 27.3644 19.9054C27.8675 20.0771 28.3997 20.1468 28.9301 20.1104C29.7621 20.1192 30.5798 19.894 31.2901 19.4604C31.8221 19.1019 32.2362 18.5939 32.4801 18.0004H36.4801C36.0007 19.6969 34.9698 21.1853 33.5501 22.2304C32.1369 23.1058 30.5022 23.557 28.8401 23.5304C27.6463 23.5336 26.4626 23.3131 25.3501 22.8804C24.3493 22.5068 23.4562 21.892 22.7501 21.0904C21.9945 20.3448 21.4346 19.4243 21.1201 18.4104C20.7147 17.2927 20.5214 16.1091 20.5501 14.9204C20.5278 13.7583 20.7211 12.6021 21.1201 11.5104C21.5131 10.4919 22.0931 9.55584 22.8301 8.75043C23.5734 7.99198 24.4563 7.38419 25.4301 6.96043C26.5146 6.52744 27.6723 6.30678 28.8401 6.31043C30.1086 6.26975 31.3671 6.54826 32.5001 7.12043C33.503 7.61683 34.3633 8.36012 35.0001 9.28043C35.6631 10.2175 36.1572 11.2632 36.4601 12.3704C36.639 13.5548 36.6926 14.7548 36.6201 15.9504H24.8401C24.8205 17.1113 25.234 18.2379 26.0001 19.1104V19.1104ZM31.1201 10.5804C30.4297 9.96402 29.5244 9.64428 28.6001 9.69043C27.9791 9.6815 27.3652 9.82213 26.8101 10.1004C26.3822 10.3301 25.9967 10.6311 25.6701 10.9904C25.3702 11.3048 25.1717 11.7019 25.1001 12.1304C25.0129 12.4778 24.9593 12.8328 24.9401 13.1904H32.2501C32.174 12.2151 31.7685 11.2947 31.1001 10.5804H31.1201ZM43.0001 0.50043V9.00043C43.4995 8.11843 44.2665 7.41804 45.1901 7.00043C45.9984 6.59527 46.8861 6.37333 47.7901 6.35043C48.79 6.3115 49.7872 6.47827 50.7201 6.84043C51.4265 7.13712 52.0434 7.61274 52.5101 8.22043C52.9504 8.8541 53.2536 9.57279 53.4001 10.3304C53.5854 11.2088 53.6859 12.1029 53.7001 13.0004V23.0004H49.2301V13.8304C49.2923 12.7898 49.0675 11.752 48.5801 10.8304C48.3369 10.4841 48.0058 10.2089 47.6208 10.0331C47.2359 9.85733 46.811 9.78737 46.3901 9.83043C45.904 9.79166 45.4156 9.86735 44.9641 10.0514C44.5126 10.2355 44.1105 10.5229 43.7901 10.8904C43.1576 11.975 42.8813 13.2306 43.0001 14.4804V23.0004H38.5001V0.50043H43.0001ZM56.9501 9.11043C57.4214 8.4222 58.031 7.83981 58.7401 7.40043C59.499 6.97185 60.3234 6.67116 61.1801 6.51043C62.0644 6.3503 62.9613 6.26998 63.8601 6.27043C64.6701 6.27043 65.4901 6.35043 66.3801 6.43043C67.1725 6.51068 67.9444 6.73075 68.6601 7.08043C69.3301 7.40045 69.9158 7.8731 70.3701 8.46043C70.8179 9.16351 71.0379 9.98767 71.0001 10.8204V19.3504C71.0099 20.0564 71.0634 20.7611 71.1601 21.4604C71.2248 22.0134 71.4239 22.5421 71.7401 23.0004H67.1901C67.032 22.7818 66.9197 22.5335 66.8601 22.2704C66.7935 22.0059 66.7665 21.7329 66.7801 21.4604C66.0756 22.1683 65.2114 22.6965 64.2601 23.0004C63.3123 23.2962 62.3226 23.4347 61.3301 23.4104C60.5866 23.4259 59.8459 23.3143 59.1401 23.0804C58.4922 22.9005 57.8846 22.5984 57.3501 22.1904C56.839 21.7692 56.4232 21.2443 56.1301 20.6504C55.8548 19.9533 55.7157 19.2099 55.7201 18.4604C55.6901 17.6714 55.8586 16.8875 56.2101 16.1804C56.5257 15.6244 56.939 15.1298 57.4301 14.7204C57.9782 14.3539 58.5829 14.0802 59.2201 13.9104C59.8766 13.7285 60.5449 13.5915 61.2201 13.5004L63.2201 13.2604C63.8867 13.1804 64.4567 13.1004 64.9301 13.0204C65.3644 12.8965 65.7763 12.7041 66.1501 12.4504C66.3036 12.3238 66.422 12.1597 66.4938 11.9741C66.5656 11.7884 66.5884 11.5874 66.5601 11.3904C66.5865 10.9956 66.5035 10.6011 66.3201 10.2504C66.146 9.995 65.9255 9.77451 65.6701 9.60043C65.3935 9.44246 65.0928 9.33098 64.7801 9.27043C64.4044 9.20028 64.0219 9.17344 63.6401 9.19043C62.9268 9.13589 62.2174 9.33804 61.6401 9.76043C61.1093 10.2427 60.7896 10.9144 60.7501 11.6304H56.2201C56.2273 10.7393 56.4798 9.86741 56.9501 9.11043V9.11043ZM65.8101 15.4504C65.5701 15.5304 65.2401 15.6104 64.9201 15.6904C64.6001 15.7704 64.2701 15.7704 63.8601 15.8504C63.4501 15.9304 63.1301 15.9304 62.8001 16.0104L61.8001 16.2504C61.501 16.32 61.2232 16.4607 60.9901 16.6604C60.7588 16.8371 60.565 17.058 60.4201 17.3104C60.2172 17.6243 60.1322 17.9998 60.1801 18.3704C60.1568 18.7204 60.2405 19.0691 60.4201 19.3704C60.57 19.6166 60.7672 19.8306 61.0001 20.0004C61.2767 20.1584 61.5773 20.2699 61.8901 20.3304C62.2387 20.4009 62.5948 20.4278 62.9501 20.4104C63.6562 20.4373 64.3586 20.2969 65.0001 20.0004C65.4078 19.7297 65.7495 19.3709 66.0001 18.9504C66.2443 18.5882 66.386 18.1667 66.4101 17.7304C66.4726 17.4009 66.4995 17.0657 66.4901 16.7304V15.0004C66.2829 15.178 66.0545 15.3292 65.8101 15.4504V15.4504ZM77.7501 6.68043V9.00043H77.8301C78.3295 8.11843 79.0965 7.41804 80.0201 7.00043C80.8848 6.59392 81.8248 6.37252 82.7801 6.35043C83.78 6.3115 84.7772 6.47827 85.7101 6.84043C86.429 7.11523 87.0514 7.59508 87.5001 8.22043C87.9451 8.8652 88.2828 9.57775 88.5001 10.3304C88.6586 11.2114 88.7322 12.1054 88.7201 13.0004V23.0004H84.2501V13.8304C84.3123 12.7898 84.0875 11.752 83.6001 10.8304C83.349 10.4666 83.0052 10.1764 82.6044 9.99007C82.2035 9.8037 81.7601 9.72787 81.3201 9.77043C80.8097 9.75123 80.3019 9.85259 79.838 10.0663C79.3741 10.28 78.9672 10.6 78.6501 11.0004C78.0127 12.0799 77.7295 13.3318 77.8401 14.5804V23.1104H73.3601V6.68043H77.7501ZM98.7201 9.60043C98.0873 9.57649 97.4624 9.74754 96.9301 10.0904C96.4251 10.4197 96.0066 10.8656 95.7101 11.3904C95.3965 11.9187 95.1766 12.4972 95.0601 13.1004C94.9237 13.724 94.8699 14.3628 94.9001 15.0004C94.9129 15.6 94.9664 16.1981 95.0601 16.7904C95.1762 17.3686 95.3965 17.9209 95.7101 18.4204C96.0019 18.9013 96.39 19.3167 96.8501 19.6404C97.3824 19.9833 98.0073 20.1544 98.6401 20.1304C99.5622 20.162 100.462 19.8441 101.16 19.2404C101.798 18.5829 102.175 17.7156 102.22 16.8004H106.53C106.367 18.7299 105.464 20.5216 104.01 21.8004C102.483 22.9878 100.583 23.5939 98.6501 23.5104C97.5082 23.5144 96.3766 23.2935 95.3201 22.8604C94.3398 22.4853 93.4527 21.9019 92.7201 21.1504C91.9718 20.3784 91.3868 19.4636 91.0001 18.4604C90.6016 17.3964 90.4082 16.2665 90.4301 15.1304C90.4001 13.9384 90.5935 12.7513 91.0001 11.6304C91.3652 10.5921 91.9176 9.62946 92.6301 8.79043C93.3702 8.0078 94.2526 7.37317 95.2301 6.92043C96.3426 6.48777 97.5264 6.26731 98.7201 6.27043C99.6544 6.28152 100.583 6.41945 101.48 6.68043C102.331 6.91002 103.131 7.29666 103.84 7.82043C104.578 8.32246 105.169 9.01304 105.55 9.82043C105.983 10.6795 106.232 11.6196 106.28 12.5804H101.89C101.913 12.1664 101.846 11.7523 101.692 11.3673C101.538 10.9822 101.302 10.6354 101 10.3514C100.698 10.0674 100.337 9.853 99.9432 9.72326C99.5493 9.59352 99.1318 9.55159 98.7201 9.60043V9.60043ZM23.9501 2.04043H33.0501V4.23043H23.9501V2.04043ZM113.27 19.1104C114.079 19.8139 115.13 20.1728 116.2 20.1104C117.032 20.1192 117.85 19.894 118.56 19.4604C119.1 19.1049 119.521 18.5966 119.77 18.0004H123.67C123.191 19.6969 122.16 21.1853 120.74 22.2304C119.315 23.1009 117.669 23.5418 116 23.5004C114.806 23.5036 113.623 23.2831 112.51 22.8504C111.528 22.448 110.643 21.8413 109.914 21.0706C109.185 20.2999 108.628 19.3829 108.28 18.3804C107.875 17.2627 107.681 16.0791 107.71 14.8904C107.688 13.7283 107.881 12.5721 108.28 11.4804C108.675 10.4576 109.258 9.51799 110 8.71043C110.743 7.95198 111.626 7.34419 112.6 6.92043C113.687 6.49506 114.843 6.27467 116.01 6.27043C117.254 6.2196 118.489 6.49907 119.59 7.08043C120.604 7.5824 121.472 8.33652 122.11 9.27043C122.773 10.2075 123.267 11.2532 123.57 12.3604C123.889 13.5526 124 14.7905 123.9 16.0204H112.13C112.117 17.1557 112.523 18.2559 113.27 19.1104V19.1104ZM118.47 10.5804C117.78 9.96402 116.874 9.64428 115.95 9.69043C115.329 9.6815 114.715 9.82213 114.16 10.1004C113.71 10.3089 113.314 10.6166 113 11.0004C112.731 11.3352 112.536 11.724 112.43 12.1404C112.343 12.4878 112.289 12.8428 112.27 13.2004H119.58C119.432 12.2496 119.039 11.3536 118.44 10.6004L118.47 10.5804Z" fill="#0071E0"/>
</svg>
