<svg width="45" height="50" viewBox="0 0 45 50" fill="none" xmlns="http://www.w3.org/2000/svg">
<path d="M4.40948 44.6718L0.437012 0.114502H44.0891L40.1127 44.6651L22.2366 49.621L4.40948 44.6718Z" fill="#1572B6"/>
<path d="M22.2635 45.8333L36.7085 41.8285L40.1069 3.75772H22.2635V45.8333Z" fill="#33A9DC"/>
<path d="M22.2635 19.9006H29.4949L29.9943 14.3046H22.2635V8.83979H35.9669L34.4923 25.3654H22.2635V19.9006Z" fill="white"/>
<path d="M22.2959 34.0931L22.2718 34.1002L16.1859 32.457L15.7967 28.0985H10.3118L11.0771 36.6791L22.271 39.7859L22.2959 39.7788V34.0931Z" fill="#EBEBEB"/>
<path d="M29.0303 25.1344L28.372 32.4527L22.277 34.098V39.7836L33.48 36.6788L34.5129 25.1344H29.0303Z" fill="white"/>
<path d="M22.2821 8.83979V14.3046H9.08212L8.59297 8.83979H22.2821ZM22.2635 19.9014V25.3662H16.2542L15.8955 21.3676L15.7651 19.9014H22.2635Z" fill="#EBEBEB"/>
</svg>
