<svg width="27" height="24" viewBox="0 0 27 24" fill="none" xmlns="http://www.w3.org/2000/svg">
<path d="M20.235 20L18.7235 18.6L20.424 17H15.9163V15H20.424L18.7235 13.4L20.235 12L24.5537 16L20.235 20ZM5.1195 17C4.52568 17 4.01751 16.8043 3.59499 16.413C3.17176 16.021 2.96014 15.55 2.96014 15V5C2.96014 4.45 3.17176 3.979 3.59499 3.587C4.01751 3.19567 4.52568 3 5.1195 3H19.1553C19.7492 3 20.2577 3.19567 20.6809 3.587C21.1034 3.979 21.3147 4.45 21.3147 5V10.1C21.1348 10.0667 20.9548 10.0417 20.7749 10.025C20.5949 10.0083 20.415 10 20.235 10C20.0551 10 19.8751 10.004 19.6952 10.012C19.5152 10.0207 19.3353 10.0417 19.1553 10.075V6.4L12.0295 11L5.1195 6.425V15H13.8379C13.8019 15.1667 13.7793 15.3333 13.7699 15.5C13.7613 15.6667 13.7569 15.8333 13.7569 16C13.7569 16.1667 13.7659 16.3333 13.7839 16.5C13.8019 16.6667 13.8289 16.8333 13.8649 17H5.1195ZM6.68504 5L12.0295 8.55L17.5358 5H6.68504Z" fill="#4C4C4C"/>
</svg>
