<svg width="35" height="51" viewBox="0 0 35 51" fill="none" xmlns="http://www.w3.org/2000/svg">
<path d="M9.0462 50.9696C13.7481 50.9696 17.5411 47.1765 17.5411 42.4747V33.9797H9.0462C4.34436 33.9797 0.55127 37.7728 0.55127 42.4747C0.55127 47.1765 4.34436 50.9696 9.0462 50.9696Z" fill="#0ACF83"/>
<path d="M0.55127 25.4848C0.55127 20.783 4.34436 16.9899 9.0462 16.9899H17.5411V33.9797H9.0462C4.34436 33.9797 0.55127 30.1866 0.55127 25.4848Z" fill="#A259FF"/>
<path d="M0.55127 8.49493C0.55127 3.79309 4.34436 0 9.0462 0H17.5411V16.9899H9.0462C4.34436 16.9899 0.55127 13.1968 0.55127 8.49493Z" fill="#F24E1E"/>
<path d="M17.5411 0H26.0361C30.7379 0 34.531 3.79309 34.531 8.49493C34.531 13.1968 30.7379 16.9899 26.0361 16.9899H17.5411V0Z" fill="#FF7262"/>
<path d="M34.531 25.4848C34.531 30.1866 30.7379 33.9797 26.0361 33.9797C21.3342 33.9797 17.5411 30.1866 17.5411 25.4848C17.5411 20.783 21.3342 16.9899 26.0361 16.9899C30.7379 16.9899 34.531 20.783 34.531 25.4848Z" fill="#1ABCFE"/>
</svg>
