<svg width="73" height="73" viewBox="0 0 73 73" fill="none" xmlns="http://www.w3.org/2000/svg">
<path fill-rule="evenodd" clip-rule="evenodd" d="M36.6234 16.5994C25.4023 16.5994 16.3138 25.6438 16.3138 36.8103C16.3138 45.7536 22.1274 53.3074 30.2005 55.9854C31.2159 56.1622 31.5967 55.5559 31.5967 55.0254C31.5967 54.5453 31.5714 52.9537 31.5714 51.2611C26.4686 52.1958 25.1484 50.0232 24.7422 48.8863C24.5138 48.3052 23.5237 46.5115 22.6605 46.0315C21.9497 45.6526 20.9342 44.7178 22.6351 44.6925C24.2345 44.6673 25.3769 46.1578 25.7577 46.7642C27.5856 49.8211 30.5051 48.9621 31.6729 48.4316C31.8506 47.1179 32.3837 46.2336 32.9676 45.7284C28.4487 45.2231 23.7268 43.4799 23.7268 35.7492C23.7268 33.5513 24.5138 31.7323 25.8085 30.3176C25.6054 29.8123 24.8946 27.7407 26.0116 24.9617C26.0116 24.9617 27.7125 24.4312 31.5967 27.0333C33.2215 26.5786 34.9478 26.3512 36.6741 26.3512C38.4005 26.3512 40.1268 26.5786 41.7515 27.0333C45.6358 24.4059 47.3367 24.9617 47.3367 24.9617C48.4537 27.7407 47.7429 29.8123 47.5398 30.3176C48.8345 31.7323 49.6215 33.526 49.6215 35.7492C49.6215 43.5052 44.8741 45.2231 40.3553 45.7284C41.0915 46.3599 41.7262 47.5726 41.7262 49.4674C41.7262 52.1706 41.7008 54.3432 41.7008 55.0254C41.7008 55.5559 42.0816 56.1875 43.097 55.9854C51.1193 53.3074 56.933 45.7284 56.933 36.8103C56.933 25.6438 47.8444 16.5994 36.6234 16.5994Z" fill="#1B1F23"/>
</svg>
