<svg width="44" height="51" viewBox="0 0 44 51" fill="none" xmlns="http://www.w3.org/2000/svg">
<path d="M3.95311 45.3132L0 0.975586H43.4372L39.4797 45.3065L21.6921 50.2375L3.95311 45.3132Z" fill="#E44D26"/>
<path d="M21.7186 46.4685L36.092 42.4834L39.4738 4.60075H21.7186V46.4685Z" fill="#F16529"/>
<path d="M21.7186 21.045H14.5228L14.0257 15.4762H21.7186V10.0387H8.08283L9.54949 26.4829H21.7186V21.045ZM21.7186 35.1675L21.6945 35.1742L15.6386 33.5384L15.2518 29.2021H9.79249L10.5543 37.7401L21.6937 40.8322L21.7186 40.8255V35.1675Z" fill="#EBEBEB"/>
<path d="M21.6996 21.045V26.4829H28.3956L27.7646 33.5353L21.6996 35.1722V40.8299L32.8477 37.7401L34.2073 22.5053L34.3397 21.045H21.6996ZM21.6996 10.0387V15.4762H34.8348L35.3219 10.0387H21.6996Z" fill="white"/>
</svg>
