<svg width="73" height="73" viewBox="0 0 73 73" fill="none" xmlns="http://www.w3.org/2000/svg">
<path d="M29.798 36.1388C29.798 32.5101 32.7406 29.5676 36.3716 29.5676C40.0026 29.5676 42.9468 32.5101 42.9468 36.1388C42.9468 39.7676 40.0026 42.7101 36.3716 42.7101C32.7406 42.7101 29.798 39.7676 29.798 36.1388ZM26.2435 36.1388C26.2435 41.7292 30.7778 46.2609 36.3716 46.2609C41.9654 46.2609 46.4997 41.7292 46.4997 36.1388C46.4997 30.5484 41.9654 26.0168 36.3716 26.0168C30.7778 26.0168 26.2435 30.5484 26.2435 36.1388ZM44.5337 25.6155C44.5336 26.0833 44.6722 26.5407 44.9321 26.9298C45.192 27.3189 45.5616 27.6223 45.994 27.8015C46.4264 27.9807 46.9023 28.0277 47.3615 27.9366C47.8206 27.8455 48.2425 27.6204 48.5736 27.2897C48.9048 26.9591 49.1303 26.5377 49.2219 26.0788C49.3134 25.62 49.2667 25.1444 49.0877 24.7121C48.9087 24.2798 48.6055 23.9102 48.2164 23.6501C47.8273 23.3901 47.3697 23.2511 46.9016 23.251H46.9006C46.2731 23.2513 45.6714 23.5004 45.2276 23.9438C44.7839 24.3871 44.5343 24.9884 44.5337 25.6155ZM28.4031 52.1842C26.48 52.0966 25.4348 51.7765 24.7402 51.5061C23.8193 51.1478 23.1623 50.721 22.4715 50.0316C21.7807 49.3421 21.353 48.6861 20.9961 47.7658C20.7253 47.0719 20.405 46.027 20.3176 44.1051C20.222 42.0273 20.2029 41.4031 20.2029 36.139C20.2029 30.8749 20.2236 30.2524 20.3176 28.1729C20.4052 26.251 20.7279 25.2082 20.9961 24.5122C21.3546 23.5919 21.7816 22.9352 22.4715 22.2448C23.1613 21.5544 23.8178 21.1271 24.7402 20.7704C25.4345 20.4998 26.48 20.1796 28.4031 20.0923C30.4821 19.9967 31.1067 19.9776 36.3716 19.9776C41.6365 19.9776 42.2617 19.9983 44.3425 20.0923C46.2655 20.1798 47.309 20.5023 48.0053 20.7704C48.9262 21.1271 49.5833 21.5554 50.2741 22.2448C50.9649 22.9343 51.3909 23.5919 51.7494 24.5122C52.0202 25.2061 52.3405 26.251 52.428 28.1729C52.5236 30.2524 52.5427 30.8749 52.5427 36.139C52.5427 41.4031 52.5236 42.0256 52.428 44.1051C52.3404 46.027 52.0185 47.0716 51.7494 47.7658C51.3909 48.6861 50.964 49.3428 50.2741 50.0316C49.5842 50.7204 48.9262 51.1478 48.0053 51.5061C47.3111 51.7767 46.2655 52.0968 44.3425 52.1842C42.2634 52.2797 41.6389 52.2988 36.3716 52.2988C31.1043 52.2988 30.4815 52.2797 28.4031 52.1842ZM28.2397 16.546C26.14 16.6415 24.7052 16.9743 23.4522 17.4615C22.1545 17.9648 21.0559 18.6399 19.9582 19.7352C18.8604 20.8306 18.1866 21.9302 17.6831 23.2271C17.1955 24.4802 16.8626 25.9134 16.767 28.0119C16.6698 30.1137 16.6475 30.7856 16.6475 36.1388C16.6475 41.4921 16.6698 42.164 16.767 44.2658C16.8626 46.3645 17.1955 47.7975 17.6831 49.0505C18.1866 50.3467 18.8605 51.4475 19.9582 52.5424C21.0558 53.6373 22.1545 54.3115 23.4522 54.8161C24.7076 55.3034 26.14 55.6362 28.2397 55.7317C30.3439 55.8273 31.0152 55.8511 36.3716 55.8511C41.728 55.8511 42.4004 55.8289 44.5034 55.7317C46.6034 55.6362 48.0372 55.3034 49.291 54.8161C50.5879 54.3115 51.6873 53.6378 52.785 52.5424C53.8828 51.4471 54.5552 50.3467 55.0601 49.0505C55.5477 47.7975 55.8822 46.3643 55.9762 44.2658C56.0719 42.1624 56.0941 41.4921 56.0941 36.1388C56.0941 30.7856 56.0719 30.1137 55.9762 28.0119C55.8806 25.9132 55.5477 24.4794 55.0601 23.2271C54.5552 21.931 53.8811 20.8323 52.785 19.7352C51.689 18.6381 50.5879 17.9648 49.2926 17.4615C48.0372 16.9743 46.6032 16.6399 44.505 16.546C42.402 16.4504 41.7296 16.4266 36.3732 16.4266C31.0167 16.4266 30.3439 16.4488 28.2397 16.546Z" fill="url(#paint0_radial_222_235)"/>
<path d="M29.798 36.1388C29.798 32.5101 32.7406 29.5676 36.3716 29.5676C40.0026 29.5676 42.9468 32.5101 42.9468 36.1388C42.9468 39.7676 40.0026 42.7101 36.3716 42.7101C32.7406 42.7101 29.798 39.7676 29.798 36.1388ZM26.2435 36.1388C26.2435 41.7292 30.7778 46.2609 36.3716 46.2609C41.9654 46.2609 46.4997 41.7292 46.4997 36.1388C46.4997 30.5484 41.9654 26.0168 36.3716 26.0168C30.7778 26.0168 26.2435 30.5484 26.2435 36.1388ZM44.5337 25.6155C44.5336 26.0833 44.6722 26.5407 44.9321 26.9298C45.192 27.3189 45.5616 27.6223 45.994 27.8015C46.4264 27.9807 46.9023 28.0277 47.3615 27.9366C47.8206 27.8455 48.2425 27.6204 48.5736 27.2897C48.9048 26.9591 49.1303 26.5377 49.2219 26.0788C49.3134 25.62 49.2667 25.1444 49.0877 24.7121C48.9087 24.2798 48.6055 23.9102 48.2164 23.6501C47.8273 23.3901 47.3697 23.2511 46.9016 23.251H46.9006C46.2731 23.2513 45.6714 23.5004 45.2276 23.9438C44.7839 24.3871 44.5343 24.9884 44.5337 25.6155ZM28.4031 52.1842C26.48 52.0966 25.4348 51.7765 24.7402 51.5061C23.8193 51.1478 23.1623 50.721 22.4715 50.0316C21.7807 49.3421 21.353 48.6861 20.9961 47.7658C20.7253 47.0719 20.405 46.027 20.3176 44.1051C20.222 42.0273 20.2029 41.4031 20.2029 36.139C20.2029 30.8749 20.2236 30.2524 20.3176 28.1729C20.4052 26.251 20.7279 25.2082 20.9961 24.5122C21.3546 23.5919 21.7816 22.9352 22.4715 22.2448C23.1613 21.5544 23.8178 21.1271 24.7402 20.7704C25.4345 20.4998 26.48 20.1796 28.4031 20.0923C30.4821 19.9967 31.1067 19.9776 36.3716 19.9776C41.6365 19.9776 42.2617 19.9983 44.3425 20.0923C46.2655 20.1798 47.309 20.5023 48.0053 20.7704C48.9262 21.1271 49.5833 21.5554 50.2741 22.2448C50.9649 22.9343 51.3909 23.5919 51.7494 24.5122C52.0202 25.2061 52.3405 26.251 52.428 28.1729C52.5236 30.2524 52.5427 30.8749 52.5427 36.139C52.5427 41.4031 52.5236 42.0256 52.428 44.1051C52.3404 46.027 52.0185 47.0716 51.7494 47.7658C51.3909 48.6861 50.964 49.3428 50.2741 50.0316C49.5842 50.7204 48.9262 51.1478 48.0053 51.5061C47.3111 51.7767 46.2655 52.0968 44.3425 52.1842C42.2634 52.2797 41.6389 52.2988 36.3716 52.2988C31.1043 52.2988 30.4815 52.2797 28.4031 52.1842ZM28.2397 16.546C26.14 16.6415 24.7052 16.9743 23.4522 17.4615C22.1545 17.9648 21.0559 18.6399 19.9582 19.7352C18.8604 20.8306 18.1866 21.9302 17.6831 23.2271C17.1955 24.4802 16.8626 25.9134 16.767 28.0119C16.6698 30.1137 16.6475 30.7856 16.6475 36.1388C16.6475 41.4921 16.6698 42.164 16.767 44.2658C16.8626 46.3645 17.1955 47.7975 17.6831 49.0505C18.1866 50.3467 18.8605 51.4475 19.9582 52.5424C21.0558 53.6373 22.1545 54.3115 23.4522 54.8161C24.7076 55.3034 26.14 55.6362 28.2397 55.7317C30.3439 55.8273 31.0152 55.8511 36.3716 55.8511C41.728 55.8511 42.4004 55.8289 44.5034 55.7317C46.6034 55.6362 48.0372 55.3034 49.291 54.8161C50.5879 54.3115 51.6873 53.6378 52.785 52.5424C53.8828 51.4471 54.5552 50.3467 55.0601 49.0505C55.5477 47.7975 55.8822 46.3643 55.9762 44.2658C56.0719 42.1624 56.0941 41.4921 56.0941 36.1388C56.0941 30.7856 56.0719 30.1137 55.9762 28.0119C55.8806 25.9132 55.5477 24.4794 55.0601 23.2271C54.5552 21.931 53.8811 20.8323 52.785 19.7352C51.689 18.6381 50.5879 17.9648 49.2926 17.4615C48.0372 16.9743 46.6032 16.6399 44.505 16.546C42.402 16.4504 41.7296 16.4266 36.3732 16.4266C31.0167 16.4266 30.3439 16.4488 28.2397 16.546Z" fill="url(#paint1_radial_222_235)"/>
<defs>
<radialGradient id="paint0_radial_222_235" cx="0" cy="0" r="1" gradientUnits="userSpaceOnUse" gradientTransform="translate(9.86447 72.5778) scale(94.2491 94.2453)">
<stop offset="0.09" stop-color="#FA8F21"/>
<stop offset="0.78" stop-color="#D82D7E"/>
</radialGradient>
<radialGradient id="paint1_radial_222_235" cx="0" cy="0" r="1" gradientUnits="userSpaceOnUse" gradientTransform="translate(40.5712 57.8036) scale(40.5862 40.5619)">
<stop offset="0.64" stop-color="#8C3AAA" stop-opacity="0"/>
<stop offset="1" stop-color="#8C3AAA"/>
</radialGradient>
</defs>
</svg>
