<svg width="50" height="51" viewBox="0 0 50 51" fill="none" xmlns="http://www.w3.org/2000/svg">
<path d="M0.0893555 0.580444H49.5512V50.0427H0.0893555V0.580444Z" fill="#F0DB4F"/>
<path d="M45.5033 38.2458C45.141 35.9893 43.6696 34.0939 39.3111 32.3266C37.797 31.6308 36.1091 31.1326 35.6061 29.9852C35.4275 29.3174 35.4038 28.9413 35.5168 28.5371C35.8412 27.2253 37.407 26.8164 38.6481 27.1925C39.4474 27.4604 40.204 28.0764 40.6604 29.059C42.7948 27.6769 42.7904 27.686 44.2808 26.7362C43.7351 25.8902 43.4439 25.4998 43.0868 25.1379C41.803 23.7041 40.0539 22.9656 37.2565 23.0221L35.7993 23.2106C34.403 23.5634 33.0722 24.2963 32.2919 25.279C29.9504 27.9357 30.6182 32.5854 33.4673 34.4989C36.2742 36.6057 40.3976 37.085 40.9243 39.055C41.4368 41.4668 39.1518 42.2475 36.8807 41.9701C35.207 41.622 34.2761 40.7714 33.2698 39.2245C31.4175 40.2964 31.4175 40.2964 29.513 41.3917C29.9647 42.3791 30.4392 42.8259 31.1962 43.6814C34.7791 47.3156 43.745 47.137 45.3531 41.6363C45.4183 41.4474 45.8514 40.1878 45.5033 38.2458ZM26.9784 23.3133H22.352L22.333 35.2741C22.333 37.8179 22.4646 40.1498 22.0509 40.8646C21.3741 42.2704 19.6202 42.0962 18.8209 41.8235C18.0073 41.4237 17.5937 40.8551 17.1144 40.0515C16.9828 39.8207 16.884 39.6421 16.8508 39.6283L13.0894 41.9318C13.7148 43.2155 14.6362 44.3298 15.8164 45.0536C17.5794 46.1117 19.9489 46.4361 22.4271 45.8671C24.0399 45.3973 25.4315 44.4242 26.1601 42.9429C27.2135 41.0009 26.9875 38.6504 26.978 36.0505C27.0017 31.809 26.9784 27.5683 26.9784 23.3133Z" fill="#323330"/>
</svg>
