<svg width="74" height="73" viewBox="0 0 74 73" fill="none" xmlns="http://www.w3.org/2000/svg">
<path d="M17.4665 19.4252C17.4665 17.8655 18.7723 16.5994 20.382 16.5994H53.9992C55.6095 16.5994 56.9147 17.8655 56.9147 19.4252V53.2223C56.9147 54.7825 55.6095 56.0476 53.9992 56.0476H20.382C18.7725 56.0476 17.4665 54.7827 17.4665 53.2228V19.4252Z" fill="#006699"/>
<path d="M29.4541 49.6125V31.8528H23.551V49.6125H29.4541ZM26.5038 29.4284C28.5619 29.4284 29.8432 28.0647 29.8432 26.3604C29.8046 24.6173 28.5619 23.2916 26.5429 23.2916C24.5226 23.2916 23.2031 24.6173 23.2031 26.3602C23.2031 28.0645 24.4839 29.4283 26.4651 29.4283L26.5038 29.4284ZM32.7215 49.6125H38.6241V39.6957C38.6241 39.1656 38.6626 38.6342 38.8186 38.2556C39.2451 37.1946 40.2164 36.0964 41.8474 36.0964C43.9829 36.0964 44.8376 37.7249 44.8376 40.1126V49.6125H50.7401V39.4296C50.7401 33.9748 47.8283 31.4364 43.9447 31.4364C40.7606 31.4364 39.3622 33.2161 38.5853 34.4282H38.6246V31.8534H32.7218C32.7989 33.5195 32.7215 49.6125 32.7215 49.6125Z" fill="white"/>
</svg>
