<svg width="26" height="24" viewBox="0 0 26 24" fill="none" xmlns="http://www.w3.org/2000/svg">
<path d="M21.5396 21C19.2183 21 16.9557 20.5207 14.7517 19.562C12.547 18.604 10.5945 17.3373 8.8944 15.762C7.19355 14.1873 5.82595 12.379 4.79162 10.337C3.75657 8.29567 3.23904 6.2 3.23904 4.05C3.23904 3.75 3.34701 3.5 3.56294 3.3C3.77888 3.1 4.0488 3 4.3727 3H8.74541C8.99733 3 9.22227 3.075 9.42021 3.225C9.61815 3.375 9.73512 3.56667 9.7711 3.8L10.4729 7.3C10.5089 7.53333 10.5046 7.74567 10.4599 7.937C10.4146 8.129 10.3109 8.3 10.149 8.45L7.53077 10.9C8.28654 12.1 9.23594 13.225 10.379 14.275C11.5213 15.325 12.7762 16.2333 14.1438 17L16.6811 14.65C16.843 14.5 17.0546 14.3873 17.3159 14.312C17.5765 14.2373 17.8327 14.2167 18.0846 14.25L21.8095 14.95C22.0615 15 22.2684 15.1123 22.4304 15.287C22.5923 15.4623 22.6733 15.6667 22.6733 15.9V19.95C22.6733 20.25 22.5653 20.5 22.3494 20.7C22.1334 20.9 21.8635 21 21.5396 21ZM6.50507 9L8.28654 7.35L7.82768 5H5.42539C5.51537 5.68333 5.64133 6.35833 5.80328 7.025C5.96523 7.69167 6.19916 8.35 6.50507 9ZM16.1682 17.95C16.87 18.2333 17.5855 18.4583 18.3146 18.625C19.043 18.7917 19.7761 18.9 20.5139 18.95V16.75L17.9767 16.275L16.1682 17.95Z" fill="#4C4C4C"/>
</svg>
