<svg width="72" height="72" viewBox="0 0 72 72" fill="none" xmlns="http://www.w3.org/2000/svg">
<path d="M35.8425 71.5797C59.6718 71.5797 71.5795 55.5798 71.5795 35.8427C71.5795 16.1057 59.6718 0.105713 35.8425 0.105713C12.013 0.105713 0.105469 16.1057 0.105469 35.8427C0.105469 55.5798 12.013 71.5797 35.8425 71.5797Z" fill="url(#paint0_radial_489_29)"/>
<path d="M35.8425 71.5797C59.6718 71.5797 71.5795 55.5798 71.5795 35.8427C71.5795 16.1057 59.6718 0.105713 35.8425 0.105713C12.013 0.105713 0.105469 16.1057 0.105469 35.8427C0.105469 55.5798 12.013 71.5797 35.8425 71.5797Z" fill="url(#paint1_radial_489_29)"/>
<path d="M35.8425 71.5797C59.6718 71.5797 71.5795 55.5798 71.5795 35.8427C71.5795 16.1057 59.6718 0.105713 35.8425 0.105713C12.013 0.105713 0.105469 16.1057 0.105469 35.8427C0.105469 55.5798 12.013 71.5797 35.8425 71.5797Z" fill="url(#paint2_radial_489_29)"/>
<path d="M35.8425 71.5797C59.6718 71.5797 71.5795 55.5798 71.5795 35.8427C71.5795 16.1057 59.6718 0.105713 35.8425 0.105713C12.013 0.105713 0.105469 16.1057 0.105469 35.8427C0.105469 55.5798 12.013 71.5797 35.8425 71.5797Z" fill="url(#paint3_radial_489_29)" fill-opacity="0.6"/>
<path d="M35.8425 71.5797C59.6718 71.5797 71.5795 55.5798 71.5795 35.8427C71.5795 16.1057 59.6718 0.105713 35.8425 0.105713C12.013 0.105713 0.105469 16.1057 0.105469 35.8427C0.105469 55.5798 12.013 71.5797 35.8425 71.5797Z" fill="url(#paint4_radial_489_29)"/>
<path d="M35.8425 71.5797C59.6718 71.5797 71.5795 55.5798 71.5795 35.8427C71.5795 16.1057 59.6718 0.105713 35.8425 0.105713C12.013 0.105713 0.105469 16.1057 0.105469 35.8427C0.105469 55.5798 12.013 71.5797 35.8425 71.5797Z" fill="url(#paint5_radial_489_29)"/>
<path d="M35.8425 71.5797C59.6718 71.5797 71.5795 55.5798 71.5795 35.8427C71.5795 16.1057 59.6718 0.105713 35.8425 0.105713C12.013 0.105713 0.105469 16.1057 0.105469 35.8427C0.105469 55.5798 12.013 71.5797 35.8425 71.5797Z" fill="url(#paint6_radial_489_29)"/>
<path d="M35.8425 71.5797C59.6718 71.5797 71.5795 55.5798 71.5795 35.8427C71.5795 16.1057 59.6718 0.105713 35.8425 0.105713C12.013 0.105713 0.105469 16.1057 0.105469 35.8427C0.105469 55.5798 12.013 71.5797 35.8425 71.5797Z" fill="url(#paint7_radial_489_29)"/>
<path d="M60.0975 40.9512L43.504 26.9106L58.8211 23.0813L60.0975 40.9512Z" fill="url(#paint8_linear_489_29)"/>
<path d="M29.4634 32.0162L12.8699 30.7398L24.3577 20.5284L29.4634 32.0162Z" fill="url(#paint9_linear_489_29)"/>
<path d="M37.1219 10.3171H42.2276C46.3122 14.4016 45.6313 22.2304 44.7805 25.6341L37.1219 28.187L40.9512 19.252L37.1219 10.3171Z" fill="url(#paint10_radial_489_29)"/>
<path d="M2.65853 15.4228H7.76422C11.8488 19.5073 11.168 27.3361 10.3171 30.7398L2.65853 35.8455L6.4878 24.3577L2.65853 15.4228Z" fill="url(#paint11_radial_489_29)"/>
<path d="M17.0156 27.8413L9.22915 33.8974C8.96475 34.1032 8.58238 33.8941 8.61271 33.5607L9.37517 25.1736C9.581 22.9092 8.43187 20.7365 6.44435 19.6324L1.38306 16.8206C0.443072 16.2984 0.530481 14.9191 1.5289 14.5197L7.98609 11.9368C9.78832 11.2159 11.1045 9.63357 11.4852 7.73019L12.6894 1.70913C12.8928 0.692129 14.2036 0.394825 14.8258 1.22452L18.3084 5.86789C19.5037 7.46166 21.4395 8.32225 23.4235 8.14186L32.3394 7.33136C32.6697 7.30131 32.8793 7.67704 32.6802 7.94246L28.1215 14.0208C26.9189 15.6244 26.6391 17.7391 27.3835 19.6003L30.9861 28.6064L21.6685 26.7431C20.0316 26.4156 18.3333 26.8166 17.0156 27.8413Z" fill="url(#paint12_linear_489_29)"/>
<path d="M54.6752 27.8413L62.4616 33.8974C62.7261 34.1032 63.1085 33.8941 63.0781 33.5607L62.3156 25.1736C62.1098 22.9092 63.2589 20.7365 65.2465 19.6324L70.3078 16.8206C71.2477 16.2984 71.1604 14.9191 70.162 14.5197L63.7048 11.9368C61.9025 11.2159 60.5863 9.63357 60.2057 7.73019L59.0015 1.70913C58.798 0.692129 57.4874 0.394825 56.865 1.22452L53.3824 5.86789C52.1872 7.46166 50.2514 8.32225 48.2673 8.14186L39.3515 7.33136C39.0211 7.30131 38.8116 7.67704 39.0107 7.94246L43.5693 14.0208C44.7719 15.6244 45.0517 17.7391 44.3073 19.6003L40.7047 28.6064L50.0224 26.7431C51.6593 26.4156 53.3577 26.8166 54.6752 27.8413Z" fill="url(#paint13_linear_489_29)"/>
<path d="M35.8455 61.374C12.8699 61.374 12.8699 38.3984 12.8699 38.3984H58.8211C58.8211 38.3984 58.8211 61.374 35.8455 61.374Z" fill="url(#paint14_radial_489_29)"/>
<path d="M15.4228 39.6748V38.3984H56.2683V39.6748C56.2683 41.0847 55.1254 42.2276 53.7154 42.2276H17.9756C16.5657 42.2276 15.4228 41.0847 15.4228 39.6748Z" fill="url(#paint15_linear_489_29)"/>
<defs>
<radialGradient id="paint0_radial_489_29" cx="0" cy="0" r="1" gradientUnits="userSpaceOnUse" gradientTransform="translate(60.0973 17.9756) rotate(132.839) scale(95.7401)">
<stop stop-color="#FFF478"/>
<stop offset="0.474827" stop-color="#FFB02E"/>
<stop offset="1" stop-color="#F70A8D"/>
</radialGradient>
<radialGradient id="paint1_radial_489_29" cx="0" cy="0" r="1" gradientUnits="userSpaceOnUse" gradientTransform="translate(60.0973 17.9756) rotate(131.878) scale(99.43)">
<stop stop-color="#FFF478"/>
<stop offset="0.474827" stop-color="#FFB02E"/>
<stop offset="1" stop-color="#F70A8D"/>
</radialGradient>
<radialGradient id="paint2_radial_489_29" cx="0" cy="0" r="1" gradientUnits="userSpaceOnUse" gradientTransform="translate(35.8453 26.9106) rotate(101.31) scale(45.5596 58.3532)">
<stop offset="0.787821" stop-color="#F59639" stop-opacity="0"/>
<stop offset="0.972509" stop-color="#FF7DCE"/>
</radialGradient>
<radialGradient id="paint3_radial_489_29" cx="0" cy="0" r="1" gradientUnits="userSpaceOnUse" gradientTransform="translate(40.951 30.7398) rotate(135) scale(104.698)">
<stop offset="0.314853" stop-opacity="0"/>
<stop offset="1"/>
</radialGradient>
<radialGradient id="paint4_radial_489_29" cx="0" cy="0" r="1" gradientUnits="userSpaceOnUse" gradientTransform="translate(35.8453 38.3984) rotate(77.692) scale(71.8547)">
<stop offset="0.507903" stop-color="#7D6133" stop-opacity="0"/>
<stop offset="1" stop-color="#715B32"/>
</radialGradient>
<radialGradient id="paint5_radial_489_29" cx="0" cy="0" r="1" gradientUnits="userSpaceOnUse" gradientTransform="translate(37.1217 37.122) rotate(55.7131) scale(33.9873 24.6358)">
<stop stop-color="#FFB849"/>
<stop offset="1" stop-color="#FFB847" stop-opacity="0"/>
</radialGradient>
<radialGradient id="paint6_radial_489_29" cx="0" cy="0" r="1" gradientUnits="userSpaceOnUse" gradientTransform="translate(47.3331 40.9512) rotate(9.86581) scale(29.7983)">
<stop stop-color="#FFA64B"/>
<stop offset="0.900412" stop-color="#FFAE46" stop-opacity="0"/>
</radialGradient>
<radialGradient id="paint7_radial_489_29" cx="0" cy="0" r="1" gradientUnits="userSpaceOnUse" gradientTransform="translate(39.6746 33.2927) rotate(43.9708) scale(150.753)">
<stop offset="0.185425" stop-opacity="0"/>
<stop offset="1" stop-opacity="0.4"/>
</radialGradient>
<linearGradient id="paint8_linear_489_29" x1="49.5875" y1="5.211" x2="33.1016" y2="38.5644" gradientUnits="userSpaceOnUse">
<stop offset="0.370082" stop-color="#EC812A"/>
<stop offset="1" stop-color="#FBA84C" stop-opacity="0"/>
</linearGradient>
<linearGradient id="paint9_linear_489_29" x1="38.5915" y1="23.9304" x2="32.9247" y2="63.6148" gradientUnits="userSpaceOnUse">
<stop stop-color="#C85F27"/>
<stop offset="1" stop-color="#C85F27" stop-opacity="0"/>
</linearGradient>
<radialGradient id="paint10_radial_489_29" cx="0" cy="0" r="1" gradientUnits="userSpaceOnUse" gradientTransform="translate(77.0101 40.948) rotate(162.787) scale(103.514 63.3963)">
<stop offset="0.116396" stop-color="#EC812A"/>
<stop offset="1" stop-color="#FBA84C" stop-opacity="0"/>
</radialGradient>
<radialGradient id="paint11_radial_489_29" cx="0" cy="0" r="1" gradientUnits="userSpaceOnUse" gradientTransform="translate(87.9962 44.777) rotate(170.762) scale(111.307 51.1464)">
<stop stop-color="#CC7521"/>
<stop offset="1" stop-color="#E6872B" stop-opacity="0"/>
</radialGradient>
<linearGradient id="paint12_linear_489_29" x1="30.0502" y1="-6.75645" x2="43.3071" y2="70.2729" gradientUnits="userSpaceOnUse">
<stop stop-color="#7912B2"/>
<stop offset="1" stop-color="#CF1DA1"/>
</linearGradient>
<linearGradient id="paint13_linear_489_29" x1="27.3938" y1="1.47855" x2="30.0397" y2="67.3666" gradientUnits="userSpaceOnUse">
<stop stop-color="#7912B2"/>
<stop offset="1" stop-color="#CF1DA1"/>
</linearGradient>
<radialGradient id="paint14_radial_489_29" cx="0" cy="0" r="1" gradientUnits="userSpaceOnUse" gradientTransform="translate(35.8425 87.4629) rotate(-90) scale(87.3571)">
<stop stop-color="#F70A8D"/>
<stop offset="1" stop-color="#89029C"/>
</radialGradient>
<linearGradient id="paint15_linear_489_29" x1="35.8456" y1="38.3983" x2="35.8456" y2="42.2276" gradientUnits="userSpaceOnUse">
<stop stop-color="#D5A8FE"/>
<stop offset="1" stop-color="white"/>
</linearGradient>
</defs>
</svg>
