<svg width="73" height="74" viewBox="0 0 73 74" fill="none" xmlns="http://www.w3.org/2000/svg">
<path d="M18.6848 53.5388L21.2747 43.9174C19.186 40.1694 18.5224 35.7957 19.4057 31.599C20.289 27.4023 22.6599 23.6641 26.0834 21.0703C29.5068 18.4766 33.7533 17.2012 38.0434 17.4783C42.3335 17.7554 46.3795 19.5663 49.4391 22.5789C52.4986 25.5914 54.3664 29.6034 54.6997 33.8786C55.033 38.1539 53.8094 42.4056 51.2535 45.8537C48.6977 49.3018 44.9809 51.7148 40.7853 52.6501C36.5897 53.5853 32.1967 52.9801 28.4123 50.9453L18.6848 53.5388ZM28.8814 47.3449L29.483 47.7009C32.224 49.3214 35.4256 49.9921 38.5886 49.6082C41.7517 49.2244 44.6986 47.8077 46.9701 45.5788C49.2417 43.35 50.7103 40.4343 51.147 37.286C51.5838 34.1377 50.9642 30.9338 49.3847 28.1734C47.8053 25.4131 45.3548 23.2514 42.4151 22.0252C39.4754 20.7991 36.2116 20.5773 33.1324 21.3945C30.0531 22.2118 27.3314 24.0221 25.3913 26.5433C23.4513 29.0645 22.4018 32.1551 22.4065 35.3334C22.404 37.9687 23.1346 40.553 24.5172 42.7986L24.8945 43.419L23.4466 48.7891L28.8814 47.3449Z" fill="#00D95F"/>
<path fill-rule="evenodd" clip-rule="evenodd" d="M43.4826 37.8039C43.13 37.5202 42.717 37.3205 42.2753 37.22C41.8335 37.1195 41.3746 37.121 40.9335 37.2242C40.2707 37.4988 39.8424 38.5362 39.4142 39.0549C39.3239 39.1792 39.1912 39.2664 39.041 39.3002C38.8908 39.3339 38.7335 39.3117 38.5985 39.238C36.172 38.29 34.1381 36.5516 32.8272 34.3052C32.7154 34.165 32.6624 33.987 32.6796 33.8087C32.6967 33.6304 32.7825 33.4656 32.919 33.3492C33.3966 32.8775 33.7473 32.2933 33.9386 31.6507C33.9811 30.9418 33.8183 30.2357 33.4696 29.6165C33.2 28.7485 32.687 27.9756 31.9911 27.3891C31.6321 27.2281 31.2342 27.1741 30.8452 27.2337C30.4562 27.2933 30.0928 27.4638 29.7988 27.7248C29.2884 28.164 28.8833 28.7118 28.6133 29.3279C28.3433 29.9439 28.2153 30.6126 28.2387 31.2845C28.2403 31.6619 28.2882 32.0376 28.3815 32.4033C28.6182 33.2819 28.9824 34.1214 29.4623 34.8951C29.8086 35.4878 30.1864 36.0615 30.5941 36.6139C31.9192 38.4284 33.5849 39.9689 35.4987 41.1501C36.4591 41.7503 37.4855 42.2383 38.5577 42.6045C39.6715 43.1081 40.9012 43.3014 42.1163 43.1638C42.8086 43.0593 43.4645 42.7867 44.0264 42.3699C44.5883 41.9531 45.0388 41.405 45.3384 40.7737C45.5144 40.3924 45.5679 39.9661 45.4914 39.5533C45.3078 38.7091 44.176 38.2107 43.4826 37.8039Z" fill="#00D95F"/>
</svg>
