<svg width="71" height="43" viewBox="0 0 71 43" fill="none" xmlns="http://www.w3.org/2000/svg">
<path d="M59.875 12.2423C58.6182 12.133 56.2138 12.7888 55.1209 18.144C55.1209 21.368 55.8859 23.3352 57.0881 24.0456C59.3286 24.7014 61.9515 21.6959 61.9515 18.4718C62.0608 16.2314 62.1701 13.4445 59.875 12.2423Z" fill="#7E53A4"/>
<path d="M64.0827 0.71228H6.9242C3.37229 0.71228 0.530762 3.55381 0.530762 7.05108V28.909C0.530762 32.4063 3.37229 35.3024 6.9242 35.3024H64.1373C67.6346 35.3024 70.5308 32.4609 70.5308 28.909V7.05108C70.4761 3.55381 67.6346 0.71228 64.0827 0.71228ZM24.5745 30.3298C24.5745 30.3298 20.804 25.3571 19.9297 21.5866C19.0554 17.8708 18.8368 19.5647 18.8368 19.5647C18.8368 19.5647 15.8313 26.3407 12.7166 30.6576C9.6018 34.9746 8.07174 28.5265 8.07174 28.5265C6.97885 27.215 3.86409 8.14398 3.86409 8.14398C5.61273 3.28059 8.61819 7.26966 8.61819 7.26966L11.6237 22.7888C11.6237 22.7888 16.2685 13.2806 17.8532 10.8216C19.3832 8.36255 22.0608 9.07294 22.2794 11.5866C22.498 14.1549 25.0663 21.0948 25.0663 21.0948C25.2849 13.7724 28.2903 6.77786 28.7275 5.68496C29.1646 4.59206 34.028 3.22594 33.1537 7.9254C31.0226 13.1167 28.9461 24.1003 29.4925 30.1112C28.0171 34.6467 24.5745 30.3298 24.5745 30.3298ZM44.192 27.8708C42.7712 28.5265 37.4706 32.1877 33.7002 23.991C31.3504 15.7396 36.5963 9.67403 36.5963 9.67403C36.5963 9.67403 43.4269 3.82704 48.0717 11.5866C51.8422 20.1112 45.6127 27.215 44.192 27.8708ZM61.569 27.8708C60.1482 28.5265 54.8477 32.1877 51.0772 23.991C48.7275 15.7396 53.9734 9.67403 53.9734 9.67403C53.9734 9.67403 60.8586 3.77239 65.5034 11.532C69.2739 20.1112 62.9898 27.215 61.569 27.8708Z" fill="#7E53A4"/>
<path d="M42.4433 12.2423C41.1865 12.133 38.7821 12.7888 37.6892 18.144C37.6892 21.368 38.4543 23.3352 39.6564 24.0456C41.8969 24.7014 44.5198 21.6959 44.5198 18.4718C44.6838 16.2314 44.7931 13.4445 42.4433 12.2423ZM34.028 35.3024L46.2138 42.4609L43.6455 35.3024L36.651 33.3352L34.028 35.3024Z" fill="#7E53A4"/>
</svg>
