<svg width="56" height="56" viewBox="0 0 56 56" fill="none" xmlns="http://www.w3.org/2000/svg">
<path fill-rule="evenodd" clip-rule="evenodd" d="M28.0724 55.1731C43.2469 55.1501 55.5308 42.8064 55.5308 27.5801C55.5308 12.6013 43.3035 0.265192 28.6957 0.00442575C13.3544 -0.26918 0.534747 12.1794 0.530763 27.2751C0.526336 42.8055 12.7553 55.1952 28.0724 55.1731ZM28.0277 1.34013C42.5965 1.33526 54.2043 13.172 54.1999 28.0277C54.1951 42.0529 42.2795 53.7856 28.0383 53.7887C13.5297 53.7918 1.86204 42.0285 1.86249 27.3986C1.86337 13.1459 13.7125 1.345 28.0277 1.34013ZM17.0321 15.1824C17.2703 15.9763 16.6035 16.2525 15.8947 16.3079C15.1487 16.3654 14.4032 16.4216 13.5372 16.4876C16.3954 25.003 19.2108 33.3923 22.0929 41.9767C22.2983 41.6407 22.3829 41.546 22.4201 41.4353C24.0024 36.7061 25.5935 31.98 27.1356 27.2375C27.2764 26.8049 27.2064 26.232 27.0523 25.7875C26.2364 23.4322 25.2588 21.1283 24.5434 18.7446C24.0542 17.1127 23.4051 16.0568 21.4762 16.2459C21.1477 16.2782 20.7466 15.5712 20.3787 15.2059C20.8236 14.9403 21.2654 14.4515 21.7144 14.4449C25.6423 14.3845 29.571 14.3857 33.4989 14.4484C33.9496 14.4559 34.3914 14.9575 34.8364 15.2298C34.4468 15.5858 34.1107 16.1197 33.6552 16.2574C32.9242 16.4779 32.1136 16.4362 31.2388 16.5142L39.8051 41.9975C41.1027 37.6871 42.31 33.7292 43.4842 29.761C44.5316 26.2187 43.9074 22.9107 42.0134 19.7908C41.4441 18.8527 40.7446 17.9424 40.4218 16.9193C40.0552 15.7553 39.7506 14.4302 39.945 13.2628C40.2748 11.2842 41.7929 10.3018 43.8472 10.1137C32.6055 -0.31965 14.9398 3.4152 8.43034 14.7512C10.9362 14.6357 13.3287 14.4838 15.7229 14.4511C16.1754 14.4453 16.9258 14.8278 17.0321 15.1824ZM21.5112 49.7023C21.4589 49.8551 21.4558 50.0251 21.4146 50.2788C26.2594 51.622 31.0108 51.525 35.8737 49.8865L28.4447 29.5388C26.0673 36.4502 23.7872 43.0751 21.5112 49.7023ZM17.7675 48.7823L6.57487 18.0792C1.52557 27.9423 5.36667 42.9906 17.7675 48.7823ZM51.6042 29.0535C51.9593 24.3898 50.3504 17.9327 48.9611 17.0446C48.8062 18.7601 48.9142 20.6687 48.4219 22.4077C47.2633 26.5052 45.8465 30.5314 44.4821 34.5686C42.9989 38.9569 41.4574 43.3253 39.941 47.7025C47.0654 43.4794 50.9804 37.2462 51.6042 29.0535Z" fill="#494949"/>
</svg>
