<svg width="204" height="89" viewBox="0 0 204 89" fill="none" xmlns="http://www.w3.org/2000/svg">
<path d="M17.944 0.280029V53.176H43.576L41.656 67H0.184006V0.280029H17.944Z" fill="black"/>
<path d="M70.1883 14.104C78.1883 14.104 84.4603 16.504 89.0043 21.304C93.5483 26.104 95.8203 32.824 95.8203 41.464C95.8203 46.968 94.7963 51.768 92.7483 55.864C90.7003 59.96 87.7243 63.128 83.8203 65.368C79.9803 67.608 75.4363 68.728 70.1883 68.728C62.1883 68.728 55.9163 66.328 51.3723 61.528C46.8283 56.728 44.5563 50.008 44.5563 41.368C44.5563 35.864 45.5803 31.064 47.6283 26.968C49.6763 22.872 52.6203 19.704 56.4603 17.464C60.3643 15.224 64.9403 14.104 70.1883 14.104ZM70.1883 26.488C67.4363 26.488 65.3883 27.704 64.0443 30.136C62.7643 32.504 62.1243 36.248 62.1243 41.368C62.1243 46.68 62.7643 50.52 64.0443 52.888C65.3883 55.192 67.4363 56.344 70.1883 56.344C72.9403 56.344 74.9563 55.16 76.2363 52.792C77.5803 50.36 78.2523 46.584 78.2523 41.464C78.2523 36.216 77.5803 32.408 76.2363 30.04C74.9563 27.672 72.9403 26.488 70.1883 26.488Z" fill="black"/>
<path d="M152.075 19.096C148.555 20.568 143.659 21.304 137.387 21.304C140.779 22.648 143.243 24.376 144.779 26.488C146.379 28.536 147.179 31.224 147.179 34.552C147.179 37.816 146.283 40.728 144.491 43.288C142.699 45.848 140.139 47.864 136.811 49.336C133.483 50.808 129.579 51.544 125.099 51.544C122.859 51.544 120.971 51.384 119.435 51.064C118.475 51.704 117.995 52.504 117.995 53.464C117.995 54.296 118.347 54.968 119.051 55.48C119.819 55.992 121.259 56.248 123.371 56.248H130.859C134.891 56.248 138.443 56.888 141.515 58.168C144.587 59.448 146.923 61.24 148.523 63.544C150.187 65.784 151.019 68.344 151.019 71.224C151.019 76.664 148.651 80.888 143.915 83.896C139.179 86.968 132.363 88.504 123.467 88.504C117.003 88.504 111.915 87.832 108.203 86.488C104.555 85.144 101.995 83.256 100.523 80.824C99.0508 78.392 98.3148 75.384 98.3148 71.8H113.579C113.579 73.272 113.835 74.392 114.347 75.16C114.923 75.992 115.947 76.568 117.419 76.888C118.891 77.272 121.067 77.464 123.947 77.464C127.723 77.464 130.315 77.016 131.723 76.12C133.131 75.224 133.835 74.008 133.835 72.472C133.835 71.192 133.323 70.136 132.299 69.304C131.275 68.472 129.675 68.056 127.499 68.056H120.203C114.635 68.056 110.475 67.128 107.723 65.272C105.035 63.352 103.691 60.888 103.691 57.88C103.691 55.96 104.267 54.104 105.419 52.312C106.571 50.52 108.107 49.048 110.027 47.896C106.699 46.104 104.299 44.024 102.827 41.656C101.355 39.288 100.619 36.44 100.619 33.112C100.619 27.16 102.731 22.52 106.955 19.192C111.179 15.8 116.811 14.104 123.851 14.104C128.843 14.296 133.195 13.752 136.907 12.472C140.619 11.128 144.395 9.24003 148.235 6.80803L152.075 19.096ZM124.331 25.24C122.283 25.24 120.651 25.912 119.435 27.256C118.219 28.536 117.611 30.36 117.611 32.728C117.611 35.288 118.219 37.24 119.435 38.584C120.651 39.928 122.315 40.6 124.427 40.6C128.907 40.6 131.147 37.912 131.147 32.536C131.147 30.04 130.571 28.216 129.419 27.064C128.331 25.848 126.635 25.24 124.331 25.24Z" fill="black"/>
<path d="M177.813 14.104C185.813 14.104 192.085 16.504 196.629 21.304C201.173 26.104 203.445 32.824 203.445 41.464C203.445 46.968 202.421 51.768 200.373 55.864C198.325 59.96 195.349 63.128 191.445 65.368C187.605 67.608 183.061 68.728 177.813 68.728C169.813 68.728 163.541 66.328 158.997 61.528C154.453 56.728 152.181 50.008 152.181 41.368C152.181 35.864 153.205 31.064 155.253 26.968C157.301 22.872 160.245 19.704 164.085 17.464C167.989 15.224 172.565 14.104 177.813 14.104ZM177.813 26.488C175.061 26.488 173.013 27.704 171.669 30.136C170.389 32.504 169.749 36.248 169.749 41.368C169.749 46.68 170.389 50.52 171.669 52.888C173.013 55.192 175.061 56.344 177.813 56.344C180.565 56.344 182.581 55.16 183.861 52.792C185.205 50.36 185.877 46.584 185.877 41.464C185.877 36.216 185.205 32.408 183.861 30.04C182.581 27.672 180.565 26.488 177.813 26.488Z" fill="black"/>
</svg>
