<svg width="52" height="8" viewBox="0 0 52 8" fill="none" xmlns="http://www.w3.org/2000/svg">
<path d="M8 4C8 6.20914 6.20914 8 4 8C1.79086 8 0 6.20914 0 4C0 1.79086 1.79086 0 4 0C6.20914 0 8 1.79086 8 4Z" fill="#52DFFC"/>
<path d="M30 4C30 6.20914 28.2091 8 26 8C23.7909 8 22 6.20914 22 4C22 1.79086 23.7909 0 26 0C28.2091 0 30 1.79086 30 4Z" fill="#A5F566"/>
<path d="M52 4C52 6.20914 50.2091 8 48 8C45.7909 8 44 6.20914 44 4C44 1.79086 45.7909 0 48 0C50.2091 0 52 1.79086 52 4Z" fill="#FC3D94"/>
</svg>
