<svg width="86" height="86" viewBox="0 0 86 86" fill="none" xmlns="http://www.w3.org/2000/svg">
<path fill-rule="evenodd" clip-rule="evenodd" d="M43.1786 19.6326C29.8741 19.6326 19.0981 30.3563 19.0981 43.596C19.0981 54.1998 25.9912 63.1561 35.5632 66.3313C36.7672 66.5409 37.2187 65.822 37.2187 65.193C37.2187 64.6239 37.1886 62.7368 37.1886 60.7298C31.1384 61.8381 29.5731 59.2621 29.0915 57.9141C28.8206 57.2252 27.6467 55.0984 26.6233 54.5293C25.7805 54.08 24.5764 52.9717 26.5932 52.9417C28.4895 52.9118 29.844 54.6791 30.2956 55.398C32.4628 59.0224 35.9244 58.004 37.309 57.375C37.5197 55.8173 38.1518 54.7689 38.8441 54.1699C33.4862 53.5708 27.8875 51.5039 27.8875 42.3379C27.8875 39.7319 28.8206 37.5752 30.3558 35.8978C30.115 35.2987 29.2721 32.8425 30.5966 29.5475C30.5966 29.5475 32.6133 28.9185 37.2187 32.0037C39.1451 31.4646 41.192 31.195 43.2388 31.195C45.2856 31.195 47.3325 31.4646 49.2589 32.0037C53.8643 28.8885 55.881 29.5475 55.881 29.5475C57.2055 32.8425 56.3626 35.2987 56.1218 35.8978C57.657 37.5752 58.5901 39.702 58.5901 42.3379C58.5901 51.5339 52.9613 53.5708 47.6034 54.1699C48.4763 54.9187 49.2288 56.3565 49.2288 58.6031C49.2288 61.8082 49.1987 64.3842 49.1987 65.193C49.1987 65.822 49.6502 66.5709 50.8542 66.3313C60.366 63.1561 67.259 54.1699 67.259 43.596C67.259 30.3563 56.483 19.6326 43.1786 19.6326Z" fill="#1B1F23"/>
</svg>
