<svg width="86" height="86" viewBox="0 0 86 86" fill="none" xmlns="http://www.w3.org/2000/svg">
<path d="M35.2076 42.7999C35.2076 38.4973 38.6967 35.0085 43.0018 35.0085C47.3069 35.0085 50.7978 38.4973 50.7978 42.7999C50.7978 47.1024 47.3069 50.5912 43.0018 50.5912C38.6967 50.5912 35.2076 47.1024 35.2076 42.7999ZM30.9932 42.7999C30.9932 49.4282 36.3694 54.8012 43.0018 54.8012C49.6341 54.8012 55.0103 49.4282 55.0103 42.7999C55.0103 36.1715 49.6341 30.7985 43.0018 30.7985C36.3694 30.7985 30.9932 36.1715 30.9932 42.7999ZM52.6794 30.3227C52.6791 30.8774 52.8435 31.4197 53.1517 31.8811C53.4599 32.3424 53.898 32.7021 54.4107 32.9145C54.9234 33.127 55.4877 33.1828 56.0321 33.0748C56.5765 32.9668 57.0767 32.6999 57.4693 32.3078C57.8619 31.9157 58.1294 31.4161 58.2379 30.8721C58.3464 30.3281 58.2911 29.7641 58.0789 29.2515C57.8667 28.739 57.5071 28.3008 57.0458 27.9924C56.5844 27.6841 56.0419 27.5194 55.4868 27.5191H55.4857C54.7417 27.5195 54.0283 27.8149 53.5021 28.3406C52.9759 28.8663 52.68 29.5791 52.6794 30.3227ZM33.5537 61.8243C31.2737 61.7205 30.0344 61.341 29.2108 61.0203C28.119 60.5955 27.3399 60.0895 26.5209 59.272C25.7018 58.4546 25.1948 57.6768 24.7716 56.5856C24.4505 55.7629 24.0707 54.5239 23.9671 52.2452C23.8537 49.7816 23.8311 49.0416 23.8311 42.8001C23.8311 36.5586 23.8556 35.8206 23.9671 33.3549C24.0709 31.0762 24.4535 29.8397 24.7716 29.0146C25.1966 27.9234 25.7029 27.1448 26.5209 26.3262C27.3388 25.5076 28.1171 25.0009 29.2108 24.578C30.034 24.2571 31.2737 23.8776 33.5537 23.774C36.0188 23.6607 36.7593 23.638 43.0018 23.638C49.2442 23.638 49.9855 23.6625 52.4526 23.774C54.7327 23.8777 55.9699 24.2601 56.7955 24.578C57.8874 25.0009 58.6664 25.5088 59.4855 26.3262C60.3046 27.1437 60.8097 27.9234 61.2348 29.0146C61.5558 29.8373 61.9356 31.0762 62.0393 33.3549C62.1527 35.8206 62.1753 36.5586 62.1753 42.8001C62.1753 49.0416 62.1527 49.7796 62.0393 52.2452C61.9354 54.5239 61.5538 55.7625 61.2348 56.5856C60.8097 57.6768 60.3035 58.4553 59.4855 59.272C58.6675 60.0888 57.8874 60.5955 56.7955 61.0203C55.9723 61.3411 54.7327 61.7207 52.4526 61.8243C49.9875 61.9376 49.247 61.9602 43.0018 61.9602C36.7565 61.9602 36.0181 61.9376 33.5537 61.8243ZM33.3601 19.5692C30.8705 19.6825 29.1693 20.0771 27.6836 20.6548C26.145 21.2515 24.8425 22.0519 23.5409 23.3507C22.2393 24.6494 21.4404 25.9532 20.8434 27.4909C20.2653 28.9766 19.8706 30.6759 19.7572 33.164C19.6419 35.656 19.6156 36.4527 19.6156 42.7999C19.6156 49.147 19.6419 49.9437 19.7572 52.4358C19.8706 54.9241 20.2653 56.6231 20.8434 58.1089C21.4404 59.6456 22.2395 60.9509 23.5409 62.2491C24.8423 63.5473 26.145 64.3466 27.6836 64.9449C29.1721 65.5227 30.8705 65.9172 33.3601 66.0305C35.8549 66.1438 36.6508 66.1721 43.0018 66.1721C49.3527 66.1721 50.1499 66.1457 52.6434 66.0305C55.1332 65.9172 56.8333 65.5227 58.3199 64.9449C59.8576 64.3466 61.1611 63.5478 62.4627 62.2491C63.7642 60.9504 64.5614 59.6456 65.1601 58.1089C65.7382 56.6231 66.1349 54.9239 66.2464 52.4358C66.3597 49.9419 66.3861 49.147 66.3861 42.7999C66.3861 36.4527 66.3597 35.656 66.2464 33.164C66.133 30.6757 65.7382 28.9757 65.1601 27.4909C64.5614 25.9541 63.7622 24.6515 62.4627 23.3507C61.1631 22.0499 59.8576 21.2515 58.3218 20.6548C56.8333 20.0771 55.133 19.6807 52.6453 19.5692C50.1518 19.4559 49.3546 19.4277 43.0036 19.4277C36.6527 19.4277 35.8549 19.454 33.3601 19.5692Z" fill="url(#paint0_radial_37_6)"/>
<path d="M35.2076 42.7999C35.2076 38.4973 38.6967 35.0085 43.0018 35.0085C47.3069 35.0085 50.7978 38.4973 50.7978 42.7999C50.7978 47.1024 47.3069 50.5912 43.0018 50.5912C38.6967 50.5912 35.2076 47.1024 35.2076 42.7999ZM30.9932 42.7999C30.9932 49.4282 36.3694 54.8012 43.0018 54.8012C49.6341 54.8012 55.0103 49.4282 55.0103 42.7999C55.0103 36.1715 49.6341 30.7985 43.0018 30.7985C36.3694 30.7985 30.9932 36.1715 30.9932 42.7999ZM52.6794 30.3227C52.6791 30.8774 52.8435 31.4197 53.1517 31.8811C53.4599 32.3424 53.898 32.7021 54.4107 32.9145C54.9234 33.127 55.4877 33.1828 56.0321 33.0748C56.5765 32.9668 57.0767 32.6999 57.4693 32.3078C57.8619 31.9157 58.1294 31.4161 58.2379 30.8721C58.3464 30.3281 58.2911 29.7641 58.0789 29.2515C57.8667 28.739 57.5071 28.3008 57.0458 27.9924C56.5844 27.6841 56.0419 27.5194 55.4868 27.5191H55.4857C54.7417 27.5195 54.0283 27.8149 53.5021 28.3406C52.9759 28.8663 52.68 29.5791 52.6794 30.3227ZM33.5537 61.8243C31.2737 61.7205 30.0344 61.341 29.2108 61.0203C28.119 60.5955 27.3399 60.0895 26.5209 59.272C25.7018 58.4546 25.1948 57.6768 24.7716 56.5856C24.4505 55.7629 24.0707 54.5239 23.9671 52.2452C23.8537 49.7816 23.8311 49.0416 23.8311 42.8001C23.8311 36.5586 23.8556 35.8206 23.9671 33.3549C24.0709 31.0762 24.4535 29.8397 24.7716 29.0146C25.1966 27.9234 25.7029 27.1448 26.5209 26.3262C27.3388 25.5076 28.1171 25.0009 29.2108 24.578C30.034 24.2571 31.2737 23.8776 33.5537 23.774C36.0188 23.6607 36.7593 23.638 43.0018 23.638C49.2442 23.638 49.9855 23.6625 52.4526 23.774C54.7327 23.8777 55.9699 24.2601 56.7955 24.578C57.8874 25.0009 58.6664 25.5088 59.4855 26.3262C60.3046 27.1437 60.8097 27.9234 61.2348 29.0146C61.5558 29.8373 61.9356 31.0762 62.0393 33.3549C62.1527 35.8206 62.1753 36.5586 62.1753 42.8001C62.1753 49.0416 62.1527 49.7796 62.0393 52.2452C61.9354 54.5239 61.5538 55.7625 61.2348 56.5856C60.8097 57.6768 60.3035 58.4553 59.4855 59.272C58.6675 60.0888 57.8874 60.5955 56.7955 61.0203C55.9723 61.3411 54.7327 61.7207 52.4526 61.8243C49.9875 61.9376 49.247 61.9602 43.0018 61.9602C36.7565 61.9602 36.0181 61.9376 33.5537 61.8243ZM33.3601 19.5692C30.8705 19.6825 29.1693 20.0771 27.6836 20.6548C26.145 21.2515 24.8425 22.0519 23.5409 23.3507C22.2393 24.6494 21.4404 25.9532 20.8434 27.4909C20.2653 28.9766 19.8706 30.6759 19.7572 33.164C19.6419 35.656 19.6156 36.4527 19.6156 42.7999C19.6156 49.147 19.6419 49.9437 19.7572 52.4358C19.8706 54.9241 20.2653 56.6231 20.8434 58.1089C21.4404 59.6456 22.2395 60.9509 23.5409 62.2491C24.8423 63.5473 26.145 64.3466 27.6836 64.9449C29.1721 65.5227 30.8705 65.9172 33.3601 66.0305C35.8549 66.1438 36.6508 66.1721 43.0018 66.1721C49.3527 66.1721 50.1499 66.1457 52.6434 66.0305C55.1332 65.9172 56.8333 65.5227 58.3199 64.9449C59.8576 64.3466 61.1611 63.5478 62.4627 62.2491C63.7642 60.9504 64.5614 59.6456 65.1601 58.1089C65.7382 56.6231 66.1349 54.9239 66.2464 52.4358C66.3597 49.9419 66.3861 49.147 66.3861 42.7999C66.3861 36.4527 66.3597 35.656 66.2464 33.164C66.133 30.6757 65.7382 28.9757 65.1601 27.4909C64.5614 25.9541 63.7622 24.6515 62.4627 23.3507C61.1631 22.0499 59.8576 21.2515 58.3218 20.6548C56.8333 20.0771 55.133 19.6807 52.6453 19.5692C50.1518 19.4559 49.3546 19.4277 43.0036 19.4277C36.6527 19.4277 35.8549 19.454 33.3601 19.5692Z" fill="url(#paint1_radial_37_6)"/>
<defs>
<radialGradient id="paint0_radial_37_6" cx="0" cy="0" r="1" gradientUnits="userSpaceOnUse" gradientTransform="translate(11.5731 86.0044) scale(111.748 111.744)">
<stop offset="0.09" stop-color="#FA8F21"/>
<stop offset="0.78" stop-color="#D82D7E"/>
</radialGradient>
<radialGradient id="paint1_radial_37_6" cx="0" cy="0" r="1" gradientUnits="userSpaceOnUse" gradientTransform="translate(47.9812 68.487) scale(48.1217 48.0929)">
<stop offset="0.64" stop-color="#8C3AAA" stop-opacity="0"/>
<stop offset="1" stop-color="#8C3AAA"/>
</radialGradient>
</defs>
</svg>
