<svg width="87" height="86" viewBox="0 0 87 86" fill="none" xmlns="http://www.w3.org/2000/svg">
<path d="M20.4329 22.9831C20.4329 21.1337 21.9812 19.6326 23.8897 19.6326H63.7486C65.6579 19.6326 67.2054 21.1337 67.2054 22.9831V63.0552C67.2054 64.9051 65.6579 66.4051 63.7486 66.4051H23.8897C21.9814 66.4051 20.4329 64.9053 20.4329 63.0557V22.9831Z" fill="#006699"/>
<path d="M34.6462 58.7751V37.718H27.6472V58.7751H34.6462ZM31.1482 34.8435C33.5884 34.8435 35.1076 33.2266 35.1076 31.2059C35.0619 29.1391 33.5884 27.5673 31.1946 27.5673C28.7991 27.5673 27.2346 29.1391 27.2346 31.2057C27.2346 33.2264 28.7533 34.8434 31.1023 34.8434L31.1482 34.8435ZM38.5203 58.7751H45.5188V47.0172C45.5188 46.3887 45.5645 45.7585 45.7494 45.3096C46.2551 44.0517 47.4067 42.7495 49.3406 42.7495C51.8725 42.7495 52.886 44.6804 52.886 47.5114V58.7751H59.8843V46.7016C59.8843 40.2341 56.4319 37.2244 51.8272 37.2244C48.052 37.2244 46.394 39.3344 45.4728 40.7716H45.5194V37.7188H38.5207C38.612 39.6942 38.5203 58.7751 38.5203 58.7751Z" fill="white"/>
</svg>
