<svg width="34" height="29" viewBox="0 0 34 29" fill="none" xmlns="http://www.w3.org/2000/svg">
<path d="M27.0002 28.3333L24.6668 26L27.2918 23.3333H20.3335V20H27.2918L24.6668 17.3333L27.0002 15L33.6668 21.6667L27.0002 28.3333ZM14.3335 13.3333L25.3335 6.91667V3.33333H24.9168L14.3335 9.45833L4.04183 3.33333H3.66683V7L14.3335 13.3333ZM3.4585 23.3333C2.59739 23.3333 1.86127 23.0278 1.25016 22.4167C0.639052 21.8056 0.333496 21.0694 0.333496 20.2083V3.125C0.333496 2.26389 0.639052 1.52778 1.25016 0.916667C1.86127 0.305555 2.59739 0 3.4585 0H25.5418C26.4029 0 27.1391 0.305555 27.7502 0.916667C28.3613 1.52778 28.6668 2.26389 28.6668 3.125V11.8333C28.3891 11.7778 28.1113 11.7361 27.8335 11.7083C27.5557 11.6806 27.2779 11.6667 27.0002 11.6667C24.2779 11.6667 21.9307 12.6456 19.9585 14.6033C17.9863 16.5622 17.0002 18.9167 17.0002 21.6667C17.0002 21.9444 17.0141 22.2222 17.0418 22.5C17.0696 22.7778 17.1113 23.0556 17.1668 23.3333H3.4585Z" fill="#1C1B1F"/>
</svg>
