<svg width="30" height="31" viewBox="0 0 30 31" fill="none" xmlns="http://www.w3.org/2000/svg">
<path d="M15 17.5833V2.58329C15 2.11107 15.16 1.71496 15.48 1.39496C15.7989 1.07607 16.1944 0.916626 16.6667 0.916626H28.3333C28.8056 0.916626 29.2011 1.07607 29.52 1.39496C29.84 1.71496 30 2.11107 30 2.58329V10.9166C30 11.3888 29.84 11.7844 29.52 12.1033C29.2011 12.4233 28.8056 12.5833 28.3333 12.5833H20L15 17.5833ZM28.25 31C24.6667 31 21.1739 30.2011 17.7717 28.6033C14.3683 27.0066 11.3544 24.8955 8.73 22.27C6.10444 19.6455 3.99333 16.6316 2.39667 13.2283C0.798889 9.82607 0 6.33329 0 2.74996C0 2.24996 0.166667 1.83329 0.5 1.49996C0.833333 1.16663 1.25 0.999959 1.75 0.999959H8.5C8.88889 0.999959 9.23611 1.12496 9.54167 1.37496C9.84722 1.62496 10.0278 1.9444 10.0833 2.33329L11.1667 8.16663C11.2222 8.55552 11.2156 8.9094 11.1467 9.22829C11.0767 9.54829 10.9167 9.83329 10.6667 10.0833L6.66667 14.1666C7.83333 16.1666 9.29167 18.0416 11.0417 19.7916C12.7917 21.5416 14.7222 23.0555 16.8333 24.3333L20.75 20.4166C21 20.1666 21.3267 19.9788 21.73 19.8533C22.1322 19.7288 22.5278 19.6944 22.9167 19.75L28.6667 20.9166C29.0556 21 29.375 21.1872 29.625 21.4783C29.875 21.7705 30 22.1111 30 22.5V29.25C30 29.75 29.8333 30.1666 29.5 30.5C29.1667 30.8333 28.75 31 28.25 31Z" fill="#1C1B1F"/>
</svg>
