<svg width="50" height="50" viewBox="0 0 50 50" fill="none" xmlns="http://www.w3.org/2000/svg">
<path d="M25 50C38.8071 50 50 38.8071 50 25C50 11.1929 38.8071 0 25 0C11.1929 0 0 11.1929 0 25C0 38.8071 11.1929 50 25 50Z" fill="#F0F0F0"/>
<path d="M5.16807 9.77942C3.2043 12.3344 1.72354 15.2792 0.861328 18.4783H13.867L5.16807 9.77942Z" fill="#0052B4"/>
<path d="M49.1388 18.4784C48.2766 15.2793 46.7957 12.3345 44.832 9.77954L36.1333 18.4784H49.1388Z" fill="#0052B4"/>
<path d="M0.861328 31.5219C1.72363 34.7209 3.20439 37.6657 5.16807 40.2206L13.8667 31.5219H0.861328Z" fill="#0052B4"/>
<path d="M40.2206 5.16804C37.6656 3.20427 34.7208 1.72351 31.5217 0.861206V13.8668L40.2206 5.16804Z" fill="#0052B4"/>
<path d="M9.77954 44.8319C12.3345 46.7957 15.2793 48.2765 18.4784 49.1388V36.1333L9.77954 44.8319Z" fill="#0052B4"/>
<path d="M18.4783 0.861206C15.2792 1.72351 12.3344 3.20427 9.77954 5.16794L18.4783 13.8667V0.861206Z" fill="#0052B4"/>
<path d="M31.522 49.1388C34.721 48.2765 37.6658 46.7957 40.2207 44.832L31.522 36.1333V49.1388Z" fill="#0052B4"/>
<path d="M36.1333 31.5219L44.832 40.2207C46.7957 37.6658 48.2766 34.7209 49.1388 31.5219H36.1333Z" fill="#0052B4"/>
<path d="M49.7884 21.7392H28.261H28.2609V0.211621C27.1935 0.0726563 26.1052 0 25 0C23.8946 0 22.8065 0.0726563 21.7392 0.211621V21.739V21.7391H0.211621C0.0726563 22.8065 0 23.8948 0 25C0 26.1054 0.0726563 27.1935 0.211621 28.2608H21.739H21.7391V49.7884C22.8065 49.9273 23.8946 50 25 50C26.1052 50 27.1935 49.9274 28.2608 49.7884V28.261V28.2609H49.7884C49.9273 27.1935 50 26.1054 50 25C50 23.8948 49.9273 22.8065 49.7884 21.7392Z" fill="#D80027"/>
<path d="M31.5217 31.5218L42.6776 42.6777C43.1907 42.1648 43.6801 41.6286 44.1471 41.0727L34.5961 31.5217H31.5217V31.5218Z" fill="#D80027"/>
<path d="M18.4782 31.5219H18.478L7.32227 42.6776C7.83516 43.1907 8.37139 43.6802 8.92725 44.1471L18.4782 34.596V31.5219Z" fill="#D80027"/>
<path d="M18.4782 18.4784V18.4782L7.32231 7.32227C6.80923 7.83516 6.31978 8.37139 5.85278 8.92725L15.4039 18.4783H18.4782V18.4784Z" fill="#D80027"/>
<path d="M31.5217 18.4784L42.6777 7.32234C42.1648 6.80925 41.6286 6.3198 41.0727 5.85291L31.5217 15.404V18.4784Z" fill="#D80027"/>
</svg>
