<svg width="87" height="87" viewBox="0 0 87 87" fill="none" xmlns="http://www.w3.org/2000/svg">
<path d="M22.0003 62.9692L25.0711 51.5614C22.5945 47.1175 21.8077 41.9318 22.855 36.9559C23.9023 31.98 26.7134 27.5478 30.7725 24.4724C34.8316 21.397 39.8665 19.8849 44.9531 20.2134C50.0398 20.542 54.837 22.6892 58.4646 26.261C62.0922 29.8328 64.3068 34.5897 64.702 39.6588C65.0971 44.7278 63.6464 49.769 60.616 53.8572C57.5856 57.9455 53.1787 60.8065 48.2041 61.9155C43.2295 63.0244 38.0208 62.3067 33.5339 59.8942L22.0003 62.9692ZM34.09 55.6253L34.8033 56.0474C38.0533 57.9688 41.8493 58.7639 45.5996 58.3088C49.3499 57.8537 52.844 56.174 55.5373 53.5313C58.2306 50.8887 59.9718 47.4316 60.4897 43.6988C61.0075 39.966 60.2729 36.1671 58.4002 32.8943C56.5276 29.6214 53.6221 27.0584 50.1366 25.6046C46.651 24.1507 42.7813 23.8878 39.1303 24.8568C35.4794 25.8257 32.2523 27.9721 29.952 30.9615C27.6517 33.9508 26.4074 37.6152 26.413 41.3836C26.41 44.5082 27.2763 47.5723 28.9156 50.2349L29.3629 50.9705L27.6462 57.3377L34.09 55.6253Z" fill="#00D95F"/>
<path fill-rule="evenodd" clip-rule="evenodd" d="M51.4023 44.3128C50.9841 43.9764 50.4945 43.7397 49.9707 43.6205C49.447 43.5014 48.9028 43.5031 48.3798 43.6255C47.594 43.9511 47.0862 45.1811 46.5784 45.7961C46.4714 45.9435 46.314 46.0469 46.136 46.0869C45.9579 46.1269 45.7713 46.1006 45.6113 46.0132C42.7343 44.8892 40.3228 42.8281 38.7684 40.1645C38.6359 39.9983 38.5731 39.7873 38.5934 39.5759C38.6137 39.3644 38.7155 39.1691 38.8773 39.031C39.4436 38.4718 39.8594 37.7791 40.0862 37.0171C40.1366 36.1766 39.9436 35.3394 39.5301 34.6053C39.2105 33.5762 38.6022 32.6598 37.7771 31.9644C37.3515 31.7735 36.8797 31.7095 36.4185 31.7801C35.9572 31.8507 35.5264 32.0529 35.1778 32.3623C34.5727 32.8831 34.0923 33.5326 33.7722 34.2631C33.4521 34.9935 33.3003 35.7863 33.328 36.583C33.3299 37.0304 33.3868 37.4759 33.4973 37.9095C33.778 38.9513 34.2098 39.9466 34.7788 40.864C35.1894 41.5667 35.6374 42.247 36.1208 42.9019C37.6919 45.0532 39.6668 46.8798 41.936 48.2803C43.0746 48.9919 44.2916 49.5705 45.5629 50.0047C46.8835 50.6018 48.3415 50.831 49.7822 50.6679C50.6031 50.544 51.3808 50.2207 52.047 49.7266C52.7132 49.2324 53.2474 48.5825 53.6026 47.8341C53.8113 47.3819 53.8747 46.8765 53.784 46.387C53.5663 45.3861 52.2244 44.7952 51.4023 44.3128Z" fill="#00D95F"/>
</svg>
