<svg width="32" height="32" viewBox="0 0 32 32" fill="none" xmlns="http://www.w3.org/2000/svg">
<path d="M9.36804 27V4.59998H16.728C18.4774 4.59998 19.9174 4.88798 21.048 5.46398C22.1787 6.03998 23.0107 6.81864 23.544 7.79998C24.0987 8.78131 24.376 9.89064 24.376 11.128C24.376 12.344 24.1094 13.4426 23.576 14.424C23.0427 15.4053 22.2107 16.1946 21.08 16.792C19.9494 17.368 18.4987 17.656 16.728 17.656H12.056V27H9.36804ZM12.056 15.384H16.664C18.456 15.384 19.7254 15.0106 20.472 14.264C21.24 13.496 21.624 12.4506 21.624 11.128C21.624 9.78398 21.24 8.73864 20.472 7.99198C19.7254 7.22398 18.456 6.83998 16.664 6.83998H12.056V15.384Z" fill="#3B5AFB"/>
</svg>
