<svg width="17" height="17" viewBox="0 0 17 17" fill="none" xmlns="http://www.w3.org/2000/svg">
<path id="Vector" d="M8.4751 2.05554C10.6084 2.05554 10.8751 2.05554 11.7418 2.1222C13.9418 2.18887 14.9418 3.25554 15.0084 5.38887C15.0751 6.25554 15.0751 6.45554 15.0751 8.58887C15.0751 10.7222 15.0751 10.9889 15.0084 11.7889C14.9418 13.9222 13.8751 14.9889 11.7418 15.0556C10.8751 15.1222 10.6751 15.1222 8.4751 15.1222C6.34177 15.1222 6.0751 15.1222 5.2751 15.0556C3.0751 14.9889 2.0751 13.9222 2.00843 11.7889C1.94177 10.9222 1.94177 10.7222 1.94177 8.58887C1.94177 6.45554 1.94177 6.18887 2.00843 5.38887C2.0751 3.25554 3.14177 2.18887 5.2751 2.1222C6.0751 2.05554 6.34177 2.05554 8.4751 2.05554ZM8.4751 0.588867C6.2751 0.588867 6.00843 0.588867 5.20843 0.655534C2.2751 0.788867 0.675098 2.38887 0.541764 5.3222C0.475098 6.1222 0.475098 6.38887 0.475098 8.58887C0.475098 10.7889 0.475098 11.0556 0.541764 11.8556C0.675098 14.7889 2.2751 16.3889 5.20843 16.5222C6.00843 16.5889 6.2751 16.5889 8.4751 16.5889C10.6751 16.5889 10.9418 16.5889 11.7418 16.5222C14.6751 16.3889 16.2751 14.7889 16.4084 11.8556C16.4751 11.0556 16.4751 10.7889 16.4751 8.58887C16.4751 6.38887 16.4751 6.1222 16.4084 5.3222C16.2751 2.38887 14.6751 0.788867 11.7418 0.655534C10.9418 0.588867 10.6751 0.588867 8.4751 0.588867ZM8.4751 4.45554C6.20843 4.45554 4.34177 6.3222 4.34177 8.58887C4.34177 10.8556 6.20843 12.7222 8.4751 12.7222C10.7418 12.7222 12.6084 10.8556 12.6084 8.58887C12.6084 6.3222 10.7418 4.45554 8.4751 4.45554ZM8.4751 11.2556C7.00843 11.2556 5.80843 10.0555 5.80843 8.58887C5.80843 7.1222 7.00843 5.9222 8.4751 5.9222C9.94177 5.9222 11.1418 7.1222 11.1418 8.58887C11.1418 10.0555 9.94177 11.2556 8.4751 11.2556ZM12.7418 3.38887C12.2084 3.38887 11.8084 3.78887 11.8084 4.3222C11.8084 4.85554 12.2084 5.25554 12.7418 5.25554C13.2751 5.25554 13.6751 4.85554 13.6751 4.3222C13.6751 3.78887 13.2751 3.38887 12.7418 3.38887Z" fill="black"/>
</svg>
