<svg width="147" height="31" viewBox="0 0 147 31" fill="none" xmlns="http://www.w3.org/2000/svg">
<path d="M4.848 16.992V11.856H8.544C12.288 11.856 14.304 9.45597 14.304 6.47997C14.304 3.47997 12.288 0.98397 8.544 0.98397H0V16.992H4.848ZM9.384 6.43197C9.384 7.27197 8.736 7.82397 7.92 7.82397H4.848V5.01597H7.92C8.736 5.01597 9.384 5.56797 9.384 6.43197Z" fill="white"/>
<path d="M18.5066 8.99997C18.5066 13.92 22.3226 17.28 27.2666 17.28C32.2106 17.28 36.0266 13.92 36.0266 8.99997C36.0266 4.07997 32.2106 0.719971 27.2666 0.719971C22.3226 0.719971 18.5066 4.07997 18.5066 8.99997ZM31.1066 8.99997C31.1066 11.232 29.5946 13.008 27.2666 13.008C24.9386 13.008 23.4266 11.232 23.4266 8.99997C23.4266 6.76797 24.9386 4.99197 27.2666 4.99197C29.5946 4.99197 31.1066 6.76797 31.1066 8.99997Z" fill="white"/>
<path d="M40.0016 14.736C41.7056 16.272 44.0336 17.28 47.4416 17.28C51.7376 17.28 54.3536 15.24 54.3536 11.712C54.3536 8.01597 50.4416 7.24797 47.8016 6.79197C46.0976 6.50397 45.4496 6.28797 45.4496 5.66397C45.4496 5.25597 45.7136 4.82397 46.9136 4.82397C48.1856 4.82397 49.9856 5.35197 51.3776 6.40797L53.9696 2.97597C52.1456 1.48797 49.7936 0.74397 47.1776 0.74397C42.7856 0.74397 40.5296 3.21597 40.5296 5.92797C40.5296 9.93597 44.5616 10.56 47.2016 11.04C48.7856 11.328 49.4576 11.64 49.4576 12.264C49.4576 12.888 48.5936 13.2 47.6816 13.2C45.5216 13.2 43.7216 12.288 42.5216 11.136L40.0016 14.736Z" fill="white"/>
<path d="M71.5684 16.992V12.96H64.2724V10.92H71.4004V6.88797H64.2724V5.01597H71.5684V0.98397H59.4244V16.992H71.5684Z" fill="white"/>
<path d="M82.0492 16.992V0.98397H77.2012V16.992H82.0492Z" fill="white"/>
<path d="M95.2869 16.992C100.303 16.992 104.047 14.088 104.047 8.97597C104.047 3.86397 100.303 0.98397 95.2629 0.98397H88.1109V16.992H95.2869ZM92.9589 5.20797H95.2869C97.8789 5.20797 99.1269 6.81597 99.1269 8.97597C99.1269 10.992 97.6869 12.768 95.2629 12.768H92.9589V5.20797Z" fill="white"/>
<path d="M108.399 8.99997C108.399 13.92 112.215 17.28 117.159 17.28C122.103 17.28 125.919 13.92 125.919 8.99997C125.919 4.07997 122.103 0.719971 117.159 0.719971C112.215 0.719971 108.399 4.07997 108.399 8.99997ZM120.999 8.99997C120.999 11.232 119.487 13.008 117.159 13.008C114.831 13.008 113.319 11.232 113.319 8.99997C113.319 6.76797 114.831 4.99197 117.159 4.99197C119.487 4.99197 120.999 6.76797 120.999 8.99997Z" fill="white"/>
<path d="M146.526 16.992V0.98397H141.678V9.04797L136.11 0.98397H131.118V16.992H135.966V8.39997L141.87 16.992H146.526Z" fill="white"/>
<path d="M47.0496 29.1787C48.9126 29.1787 50.1276 27.8917 50.1276 26.1817C50.1276 24.4807 48.9126 23.1757 47.0496 23.1757H44.9976V29.1787H47.0496ZM45.7446 23.8417H47.0496C48.5346 23.8417 49.3536 24.8857 49.3536 26.1817C49.3536 27.4687 48.5076 28.5127 47.0496 28.5127H45.7446V23.8417ZM51.0204 27.0007C51.0204 28.3597 51.9474 29.2867 53.2344 29.2867C53.9454 29.2867 54.5304 29.0527 54.9624 28.6207L54.6384 28.1797C54.2964 28.5307 53.7924 28.7287 53.2974 28.7287C52.3614 28.7287 51.7854 28.0447 51.7314 27.2257H55.2504V27.0547C55.2504 25.7497 54.4764 24.7237 53.1624 24.7237C51.9204 24.7237 51.0204 25.7407 51.0204 27.0007ZM53.1534 25.2817C54.1434 25.2817 54.5754 26.0827 54.5844 26.7307H51.7314C51.7674 26.0647 52.2264 25.2817 53.1534 25.2817ZM57.0186 29.1787V23.1757H56.3436V29.1787H57.0186ZM64.2871 29.1787V26.0377C64.2871 25.1647 63.8641 24.7237 63.0721 24.7237C62.4421 24.7237 61.8571 25.1377 61.6141 25.5337C61.4881 25.0837 61.1101 24.7237 60.4441 24.7237C59.8051 24.7237 59.2201 25.1827 59.0401 25.4617V24.8317H58.3651V29.1787H59.0401V26.0017C59.2741 25.6507 59.7421 25.3267 60.1831 25.3267C60.7501 25.3267 60.9841 25.6777 60.9841 26.2267V29.1787H61.6591V25.9927C61.8841 25.6507 62.3611 25.3267 62.8111 25.3267C63.3691 25.3267 63.6121 25.6777 63.6121 26.2267V29.1787H64.2871ZM67.5327 29.2867C68.8557 29.2867 69.6837 28.2607 69.6837 27.0007C69.6837 25.7407 68.8557 24.7237 67.5327 24.7237C66.2097 24.7237 65.3817 25.7407 65.3817 27.0007C65.3817 28.2607 66.2097 29.2867 67.5327 29.2867ZM67.5327 28.6837C66.6057 28.6837 66.0837 27.8917 66.0837 27.0007C66.0837 26.1187 66.6057 25.3267 67.5327 25.3267C68.4597 25.3267 68.9727 26.1187 68.9727 27.0007C68.9727 27.8917 68.4597 28.6837 67.5327 28.6837ZM74.3931 29.1787V26.1277C74.3931 25.1827 73.9161 24.7237 73.0071 24.7237C72.3591 24.7237 71.7651 25.1017 71.4591 25.4617V24.8317H70.7841V29.1787H71.4591V26.0017C71.7111 25.6507 72.2151 25.3267 72.7461 25.3267C73.3311 25.3267 73.7181 25.5697 73.7181 26.3347V29.1787H74.3931ZM76.8391 29.2867C77.2351 29.2867 77.4781 29.1697 77.6491 29.0077L77.4511 28.5037C77.3611 28.6027 77.1811 28.6837 76.9921 28.6837C76.6951 28.6837 76.5511 28.4497 76.5511 28.1257V25.4257H77.4331V24.8317H76.5511V23.6437H75.8761V24.8317H75.1561V25.4257H75.8761V28.2697C75.8761 28.9177 76.2001 29.2867 76.8391 29.2867ZM78.1346 27.0007C78.1346 28.3597 79.0616 29.2867 80.3486 29.2867C81.0596 29.2867 81.6446 29.0527 82.0766 28.6207L81.7526 28.1797C81.4106 28.5307 80.9066 28.7287 80.4116 28.7287C79.4756 28.7287 78.8996 28.0447 78.8456 27.2257H82.3646V27.0547C82.3646 25.7497 81.5906 24.7237 80.2766 24.7237C79.0346 24.7237 78.1346 25.7407 78.1346 27.0007ZM80.2676 25.2817C81.2576 25.2817 81.6896 26.0827 81.6986 26.7307H78.8456C78.8816 26.0647 79.3406 25.2817 80.2676 25.2817ZM85.5622 26.1817C85.5622 27.9547 86.7592 29.2867 88.5412 29.2867C90.3142 29.2867 91.5202 27.9547 91.5202 26.1817C91.5202 24.4087 90.3142 23.0767 88.5412 23.0767C86.7592 23.0767 85.5622 24.4087 85.5622 26.1817ZM90.7462 26.1817C90.7462 27.5767 89.8822 28.6207 88.5412 28.6207C87.1912 28.6207 86.3362 27.5767 86.3362 26.1817C86.3362 24.7777 87.1912 23.7427 88.5412 23.7427C89.8822 23.7427 90.7462 24.7777 90.7462 26.1817ZM96.485 29.1787V23.1757H95.81V25.4887C95.459 25.0117 94.928 24.7237 94.343 24.7237C93.2 24.7237 92.408 25.6237 92.408 27.0097C92.408 28.4227 93.209 29.2867 94.343 29.2867C94.955 29.2867 95.486 28.9717 95.81 28.5307V29.1787H96.485ZM95.81 27.9997C95.567 28.3777 95.045 28.6837 94.505 28.6837C93.632 28.6837 93.11 27.9727 93.11 27.0097C93.11 26.0467 93.632 25.3267 94.505 25.3267C95.045 25.3267 95.567 25.6507 95.81 26.0287V27.9997ZM97.5938 30.8797C97.7198 30.9157 97.9448 30.9427 98.0888 30.9427C98.6648 30.9337 99.1058 30.6907 99.3668 30.0607L101.545 24.8317H100.807L99.3668 28.3957L97.9178 24.8317H97.1888L99.0068 29.2237L98.7188 29.8807C98.5658 30.2407 98.3678 30.3397 98.0708 30.3397C97.9628 30.3397 97.8008 30.3127 97.7018 30.2677L97.5938 30.8797ZM101.871 28.6027C102.312 29.0707 102.915 29.2867 103.626 29.2867C104.751 29.2867 105.336 28.7017 105.336 27.9727C105.336 27.0097 104.463 26.7937 103.707 26.6227C103.14 26.4877 102.645 26.3527 102.645 25.9297C102.645 25.5427 103.014 25.2727 103.608 25.2727C104.166 25.2727 104.643 25.5067 104.904 25.8217L105.219 25.3537C104.868 25.0027 104.346 24.7237 103.608 24.7237C102.573 24.7237 101.988 25.2997 101.988 25.9747C101.988 26.8747 102.825 27.0727 103.563 27.2437C104.148 27.3877 104.679 27.5407 104.679 28.0177C104.679 28.4407 104.319 28.7377 103.653 28.7377C103.059 28.7377 102.51 28.4497 102.222 28.1167L101.871 28.6027ZM106.055 28.6027C106.496 29.0707 107.099 29.2867 107.81 29.2867C108.935 29.2867 109.52 28.7017 109.52 27.9727C109.52 27.0097 108.647 26.7937 107.891 26.6227C107.324 26.4877 106.829 26.3527 106.829 25.9297C106.829 25.5427 107.198 25.2727 107.792 25.2727C108.35 25.2727 108.827 25.5067 109.088 25.8217L109.403 25.3537C109.052 25.0027 108.53 24.7237 107.792 24.7237C106.757 24.7237 106.172 25.2997 106.172 25.9747C106.172 26.8747 107.009 27.0727 107.747 27.2437C108.332 27.3877 108.863 27.5407 108.863 28.0177C108.863 28.4407 108.503 28.7377 107.837 28.7377C107.243 28.7377 106.694 28.4497 106.406 28.1167L106.055 28.6027ZM110.364 27.0007C110.364 28.3597 111.291 29.2867 112.578 29.2867C113.289 29.2867 113.874 29.0527 114.306 28.6207L113.982 28.1797C113.64 28.5307 113.136 28.7287 112.641 28.7287C111.705 28.7287 111.129 28.0447 111.075 27.2257H114.594V27.0547C114.594 25.7497 113.82 24.7237 112.506 24.7237C111.264 24.7237 110.364 25.7407 110.364 27.0007ZM112.497 25.2817C113.487 25.2817 113.919 26.0827 113.928 26.7307H111.075C111.111 26.0647 111.57 25.2817 112.497 25.2817ZM115.444 30.8797C115.57 30.9157 115.795 30.9427 115.939 30.9427C116.515 30.9337 116.956 30.6907 117.217 30.0607L119.395 24.8317H118.657L117.217 28.3957L115.768 24.8317H115.039L116.857 29.2237L116.569 29.8807C116.416 30.2407 116.218 30.3397 115.921 30.3397C115.813 30.3397 115.651 30.3127 115.552 30.2677L115.444 30.8797ZM123.518 29.2867C123.914 29.2867 124.157 29.1697 124.328 29.0077L124.13 28.5037C124.04 28.6027 123.86 28.6837 123.671 28.6837C123.374 28.6837 123.23 28.4497 123.23 28.1257V25.4257H124.112V24.8317H123.23V23.6437H122.555V24.8317H121.835V25.4257H122.555V28.2697C122.555 28.9177 122.879 29.2867 123.518 29.2867ZM128.683 29.1787V26.1097C128.683 25.1647 128.206 24.7237 127.297 24.7237C126.64 24.7237 126.046 25.1017 125.74 25.4617V23.1757H125.065V29.1787H125.74V26.0017C126.001 25.6507 126.505 25.3267 127.027 25.3267C127.612 25.3267 128.008 25.5517 128.008 26.3167V29.1787H128.683ZM129.779 27.0007C129.779 28.3597 130.706 29.2867 131.993 29.2867C132.704 29.2867 133.289 29.0527 133.721 28.6207L133.397 28.1797C133.055 28.5307 132.551 28.7287 132.056 28.7287C131.12 28.7287 130.544 28.0447 130.49 27.2257H134.009V27.0547C134.009 25.7497 133.235 24.7237 131.921 24.7237C130.679 24.7237 129.779 25.7407 129.779 27.0007ZM131.912 25.2817C132.902 25.2817 133.334 26.0827 133.343 26.7307H130.49C130.526 26.0647 130.985 25.2817 131.912 25.2817ZM141.024 29.1787V26.0377C141.024 25.1647 140.601 24.7237 139.809 24.7237C139.179 24.7237 138.594 25.1377 138.351 25.5337C138.225 25.0837 137.847 24.7237 137.181 24.7237C136.542 24.7237 135.957 25.1827 135.777 25.4617V24.8317H135.102V29.1787H135.777V26.0017C136.011 25.6507 136.479 25.3267 136.92 25.3267C137.487 25.3267 137.721 25.6777 137.721 26.2267V29.1787H138.396V25.9927C138.621 25.6507 139.098 25.3267 139.548 25.3267C140.106 25.3267 140.349 25.6777 140.349 26.2267V29.1787H141.024ZM142.119 27.0007C142.119 28.3597 143.046 29.2867 144.333 29.2867C145.044 29.2867 145.629 29.0527 146.061 28.6207L145.737 28.1797C145.395 28.5307 144.891 28.7287 144.396 28.7287C143.46 28.7287 142.884 28.0447 142.83 27.2257H146.349V27.0547C146.349 25.7497 145.575 24.7237 144.261 24.7237C143.019 24.7237 142.119 25.7407 142.119 27.0007ZM144.252 25.2817C145.242 25.2817 145.674 26.0827 145.683 26.7307H142.83C142.866 26.0647 143.325 25.2817 144.252 25.2817Z" fill="white"/>
</svg>
