<svg width="20" height="16" viewBox="0 0 20 16" fill="none" xmlns="http://www.w3.org/2000/svg">
<path id="Vector" d="M6.38622 15.0453C13.4207 15.0453 17.2676 9.30856 17.2676 4.33418C17.2676 4.17119 17.2643 4.00904 17.2566 3.84752C18.0033 3.31619 18.6525 2.65297 19.1645 1.89833C18.4793 2.19803 17.7418 2.39983 16.9683 2.49082C17.7577 2.0248 18.3642 1.28729 18.6501 0.408285C17.9111 0.83965 17.0928 1.1531 16.2218 1.32214C15.5236 0.590472 14.5297 0.132812 13.43 0.132812C11.3178 0.132812 9.60495 1.81883 9.60495 3.89698C9.60495 4.19248 9.63866 4.47964 9.70397 4.75532C6.52572 4.59818 3.70726 3.09998 1.82121 0.822328C1.49239 1.37849 1.30306 2.02502 1.30306 2.71432C1.30306 4.02031 1.97831 5.17333 3.00508 5.84803C2.37774 5.82905 1.78835 5.65917 1.27296 5.37701C1.27211 5.39267 1.27211 5.40853 1.27211 5.42502C1.27211 7.24835 2.59061 8.77054 4.34032 9.11551C4.01912 9.2017 3.68118 9.24802 3.33221 9.24802C3.08586 9.24802 2.84628 9.22382 2.61328 9.18021C3.10006 10.6757 4.51205 11.7642 6.18608 11.7949C4.87692 12.8048 3.2279 13.4064 1.4362 13.4064C1.12773 13.4064 0.823285 13.3891 0.523926 13.3542C2.2164 14.4219 4.22604 15.0453 6.38622 15.0453Z" fill="black"/>
</svg>
